<?xml version="1.0" encoding="UTF-8"?>
<!DOCTYPE svg PUBLIC "-//W3C//DTD SVG 1.1//EN" "http://www.w3.org/Graphics/SVG/1.1/DTD/svg11.dtd">
<!-- Creator: CorelDRAW -->
<svg xmlns="http://www.w3.org/2000/svg" xml:space="preserve" width="595px" height="527px" version="1.1" style="shape-rendering:geometricPrecision; text-rendering:geometricPrecision; image-rendering:optimizeQuality; fill-rule:evenodd; clip-rule:evenodd"
viewBox="0 0 81.03 71.73"
 xmlns:xlink="http://www.w3.org/1999/xlink"
 xmlns:xodm="http://www.corel.com/coreldraw/odm/2003">
 <defs>
  <style type="text/css">
   <![CDATA[
    .fil16 {fill:#012A44;fill-rule:nonzero}
    .fil2 {fill:#01414D;fill-rule:nonzero}
    .fil19 {fill:#0A566B;fill-rule:nonzero}
    .fil18 {fill:#0F6787;fill-rule:nonzero}
    .fil4 {fill:#346B70;fill-rule:nonzero}
    .fil10 {fill:#46BAEB;fill-rule:nonzero}
    .fil6 {fill:#91A1AC;fill-rule:nonzero}
    .fil8 {fill:#AFA5AC;fill-rule:nonzero}
    .fil12 {fill:#C1623A;fill-rule:nonzero}
    .fil0 {fill:#C6D3DD;fill-rule:nonzero}
    .fil15 {fill:#D88567;fill-rule:nonzero}
    .fil5 {fill:#DA4D8C;fill-rule:nonzero}
    .fil20 {fill:#DB8356;fill-rule:nonzero}
    .fil13 {fill:#DBA883;fill-rule:nonzero}
    .fil17 {fill:#E8E8EB;fill-rule:nonzero}
    .fil7 {fill:#E9E6E2;fill-rule:nonzero}
    .fil9 {fill:#EBCD9E;fill-rule:nonzero}
    .fil14 {fill:#EDC6A3;fill-rule:nonzero}
    .fil1 {fill:#F2E9CC;fill-rule:nonzero}
    .fil3 {fill:#FDD633;fill-rule:nonzero}
    .fil11 {fill:white;fill-rule:nonzero}
   ]]>
  </style>
 </defs>
 <g id="Слой_x0020_1">
  <metadata id="CorelCorpID_0Corel-Layer"/>
  <g id="_2697474440752">
   <g>
    <path class="fil0" d="M66.23 62.22l-53.46 0c-7.85,1.01 -12.77,2.44 -12.77,4.04 0,3.02 17.69,5.47 39.5,5.47 21.82,0 39.5,-2.45 39.5,-5.47 0,-1.6 -4.92,-3.03 -12.77,-4.04z"/>
    <g>
     <path class="fil1" d="M72.07 63.33c0.84,-6.86 4.01,-13.23 6.35,-19.76 2.47,-6.88 3.98,-14.73 0.85,-21.34 -1.88,-3.98 -6.04,-6.21 -9.3,-9.16 -5.27,-4.77 -10,-10.52 -16.87,-12.33 -11.85,-3.12 -24.2,4.03 -32.29,13.23 -9.73,11.07 -15.54,25.51 -16.2,40.22 -0.13,3.02 0.18,6.39 1.35,9.14l66.11 0z"/>
    </g>
   </g>
   <g>
    <g>
     <g>
      <g>
       <g>
        <g>
         <g>
          <path class="fil2" d="M61.43 40.39c-0.01,0.9 -0.74,1.62 -1.64,1.61l-42.51 -0.32c-0.9,0 -1.62,-0.74 -1.61,-1.64 0,-0.9 0.74,-1.62 1.64,-1.61l42.51 0.32c0.89,0 1.62,0.74 1.61,1.64z"/>
          <path class="fil3" d="M61.17 40.47c0,0.66 -0.55,1.2 -1.21,1.19 -0.67,0 -1.2,-0.55 -1.2,-1.21 0.01,-0.67 0.55,-1.2 1.22,-1.2 0.66,0.01 1.2,0.55 1.19,1.22z"/>
         </g>
         <g>
          <path class="fil2" d="M61.38 46.63c0,0.9 -0.74,1.62 -1.64,1.61l-42.51 -0.32c-0.89,0 -1.62,-0.74 -1.61,-1.64 0.01,-0.9 0.74,-1.62 1.64,-1.61l42.51 0.32c0.9,0.01 1.62,0.74 1.61,1.64z"/>
          <path class="fil3" d="M61.13 46.58c-0.01,0.66 -0.55,1.2 -1.22,1.19 -0.66,0 -1.2,-0.54 -1.19,-1.21 0,-0.67 0.54,-1.2 1.21,-1.2 0.67,0.01 1.2,0.55 1.2,1.22z"/>
         </g>
        </g>
        <g>
         <g>
          <polygon class="fil4" points="22.65,65.39 19.88,65.37 20.18,25.45 22.95,25.48 "/>
          <polygon class="fil2" points="22.65,65.39 21.85,65.39 22.15,25.47 22.95,25.48 "/>
         </g>
         <g>
          <polygon class="fil4" points="62.81,65.69 60.03,65.67 60.34,25.76 63.11,25.78 "/>
          <polygon class="fil2" points="62.81,65.69 61.83,65.69 62.13,25.77 63.11,25.78 "/>
         </g>
         <g>
          <path class="fil4" d="M67.11 66.84l-12.66 -0.09 0.01 -1.75c0.01,-0.59 0.48,-1.05 1.06,-1.05l10.56 0.08c0.58,0 1.05,0.48 1.04,1.06l-0.01 1.75z"/>
          <g>
           <path class="fil2" d="M67.11 66.84l-8.53 -0.06 0.01 -1.75c0.01,-0.58 0.48,-1.05 1.07,-1.05l6.42 0.05c0.58,0 1.05,0.48 1.04,1.06l-0.01 1.75z"/>
          </g>
         </g>
         <g>
          <path class="fil4" d="M27 66.54l-12.67 -0.1 0.02 -1.75c0,-0.58 0.48,-1.05 1.06,-1.04l10.55 0.08c0.59,0 1.05,0.48 1.05,1.06l-0.01 1.75z"/>
          <g>
           <path class="fil2" d="M27 66.54l-8.54 -0.06 0.02 -1.75c0,-0.59 0.48,-1.05 1.06,-1.05l6.42 0.05c0.59,0 1.05,0.48 1.05,1.06l-0.01 1.75z"/>
          </g>
         </g>
        </g>
        <g>
         <g>
          <path class="fil5" d="M20.81 33.83l0.1 -13.34c-1.14,-0.35 -2.47,-0.07 -3.45,0.56 -0.99,0.63 -1.67,1.58 -2.15,2.56 -0.48,0.98 -0.8,2.01 -1.25,3.01 -0.55,1.24 -1.28,2.41 -1.69,3.69 -0.36,1.13 -0.43,2.39 0.12,3.46l8.32 0.06z"/>
          <path class="fil2" d="M21.64 33.84l0.1 -13.34c-1.15,-0.36 -2.48,-0.07 -3.45,0.55 -1,0.64 -1.67,1.59 -2.15,2.57 -0.49,0.98 -0.81,2.01 -1.25,3.01 -0.55,1.23 -1.16,2.46 -1.69,3.69 -0.5,1.15 -0.61,2.42 0.12,3.45l8.32 0.07z"/>
          <path class="fil6" d="M64.58 33.64l-49.07 -0.37c0,0 -0.3,-3.58 0.27,-6.2 0.64,-2.92 3.82,-6.14 3.82,-6.14l45.07 0.34 -0.09 12.37z"/>
          <g>
           <path class="fil7" d="M58.88 23.17l-39.9 -0.3c-0.08,0 -0.15,-0.06 -0.15,-0.14 0.01,-0.08 0.07,-0.14 0.15,-0.14l39.9 0.3c0.08,0 0.14,0.06 0.14,0.14 0,0.08 -0.06,0.14 -0.14,0.14z"/>
          </g>
          <g>
           <path class="fil8" d="M60.1 21.24c0,0 -3.18,3.21 -3.82,6.13 -0.57,2.63 -0.27,6.2 -0.27,6.2l8.57 0.07 0.09 -12.37 -4.57 -0.03z"/>
          </g>
          <path class="fil5" d="M65.22 34.16l0.1 -13.34c-1.15,-0.35 -2.48,-0.06 -3.45,0.56 -1,0.64 -1.67,1.58 -2.15,2.56 -0.49,0.99 -0.81,2.02 -1.25,3.01 -0.55,1.24 -1.29,2.42 -1.69,3.69 -0.36,1.14 -0.43,2.4 0.12,3.46l8.32 0.06z"/>
          <path class="fil2" d="M66.13 34.17l0.1 -13.34c-1.14,-0.35 -2.47,-0.07 -3.45,0.56 -0.99,0.64 -1.66,1.58 -2.15,2.56 -0.48,0.98 -0.8,2.02 -1.25,3.01 -0.54,1.24 -1.28,2.41 -1.69,3.69 -0.36,1.13 -0.43,2.39 0.12,3.46l8.32 0.06z"/>
         </g>
         <polygon class="fil7" points="15.53,32.85 55.44,33.15 55.49,27.52 15.57,27.22 "/>
         <polygon class="fil2" points="16.58,32.74 54.39,33.03 54.43,28.71 16.61,28.43 "/>
         <polygon class="fil0" points="53.32,34.95 17.07,34.68 17.08,32.31 53.33,32.58 "/>
        </g>
       </g>
       <g>
        <polygon class="fil2" points="57.17,26.42 49.99,26.37 53.01,16.39 60.2,16.44 60.2,21.99 "/>
        <polygon class="fil9" points="55.16,26.41 47.97,26.35 50.99,16.37 58.18,16.43 "/>
        <path class="fil2" d="M54.58 25.52l-5.34 -0.04c-0.18,0 -0.32,-0.18 -0.26,-0.36l2.32 -7.66c0.03,-0.12 0.14,-0.2 0.27,-0.2l5.34 0.04c0.18,0 0.32,0.18 0.26,0.36l-2.32 7.66c-0.03,0.12 -0.14,0.2 -0.27,0.2z"/>
        <path class="fil10" d="M54.73 25.52l-5.04 -0.04c-0.17,0 -0.29,-0.17 -0.24,-0.33l2.18 -7.23c0.04,-0.11 0.14,-0.19 0.26,-0.19l5.03 0.04c0.18,0 0.3,0.17 0.25,0.34l-2.19 7.23c-0.03,0.11 -0.13,0.18 -0.25,0.18z"/>
        <path class="fil2" d="M51.53 17.6c0.05,-0.05 0.13,-0.06 0.2,-0.06 0.75,-0.06 1.5,-0.07 2.25,-0.04 0.2,0.01 0.45,0.06 0.49,0.26 0.01,0.09 -0.02,0.18 -0.07,0.26 -0.26,0.49 -0.71,0.85 -1.13,1.21 -1.23,1.05 -2.34,2.24 -3.32,3.53 0.5,-1.67 1,-3.34 1.5,-5 0.02,-0.06 0.04,-0.12 0.08,-0.16z"/>
       </g>
      </g>
      <g>
       <g>
        <polygon class="fil4" points="79.94,26.81 64.24,26.69 64.26,23.93 79.96,24.05 "/>
        <polygon class="fil2" points="79.94,26.81 64.24,26.69 64.25,24.67 79.96,24.79 "/>
        <polygon class="fil8" points="80.83,33.66 64.95,33.54 65.02,25.23 80.89,25.35 "/>
        <polygon class="fil4" points="78.2,33.64 62.33,33.52 62.39,25.21 78.27,25.33 "/>
       </g>
       <g>
        <g>
         <path class="fil2" d="M65.22 31.59c-0.01,0.46 -0.38,0.83 -0.84,0.82 -0.45,0 -0.82,-0.37 -0.82,-0.83l0.03 -3.69c0,-0.46 0.38,-0.83 0.83,-0.82 0.46,0 0.83,0.37 0.82,0.83l-0.02 3.69z"/>
         <path class="fil2" d="M68 31.61c0,0.46 -0.38,0.83 -0.84,0.82 -0.45,0 -0.82,-0.37 -0.82,-0.83l0.03 -3.69c0,-0.46 0.38,-0.83 0.84,-0.82 0.45,0 0.82,0.37 0.82,0.83l-0.03 3.69z"/>
         <path class="fil2" d="M70.78 31.63c0,0.46 -0.38,0.83 -0.83,0.82 -0.46,0 -0.83,-0.37 -0.83,-0.83l0.03 -3.69c0.01,-0.46 0.38,-0.82 0.84,-0.82 0.45,0 0.82,0.38 0.82,0.83l-0.03 3.69z"/>
         <path class="fil2" d="M73.56 31.65c0,0.46 -0.38,0.83 -0.83,0.83 -0.46,-0.01 -0.83,-0.38 -0.82,-0.84l0.02 -3.69c0.01,-0.46 0.38,-0.82 0.84,-0.82 0.46,0 0.82,0.38 0.82,0.83l-0.03 3.69z"/>
         <path class="fil2" d="M76.34 31.68c0,0.45 -0.37,0.82 -0.83,0.82 -0.46,-0.01 -0.83,-0.38 -0.82,-0.84l0.03 -3.69c0,-0.46 0.37,-0.82 0.83,-0.82 0.46,0 0.82,0.38 0.82,0.83l-0.03 3.7z"/>
        </g>
        <g>
         <path class="fil5" d="M65.47 31.59c-0.01,0.46 -0.38,0.83 -0.84,0.82 -0.45,0 -0.82,-0.37 -0.82,-0.83l0.03 -3.69c0,-0.46 0.38,-0.82 0.83,-0.82 0.46,0 0.83,0.38 0.82,0.83l-0.02 3.69z"/>
         <path class="fil10" d="M68.25 31.61c0,0.46 -0.38,0.83 -0.84,0.83 -0.45,-0.01 -0.82,-0.38 -0.82,-0.84l0.03 -3.69c0,-0.46 0.38,-0.82 0.83,-0.82 0.46,0 0.83,0.38 0.83,0.83l-0.03 3.69z"/>
         <path class="fil3" d="M71.03 31.64c0,0.45 -0.38,0.82 -0.83,0.82 -0.46,-0.01 -0.83,-0.38 -0.83,-0.84l0.03 -3.69c0.01,-0.46 0.38,-0.82 0.84,-0.82 0.45,0 0.82,0.38 0.82,0.83l-0.03 3.7z"/>
         <path class="fil2" d="M73.81 31.66c0,0.45 -0.38,0.82 -0.83,0.82 -0.46,-0.01 -0.83,-0.38 -0.82,-0.84l0.02 -3.69c0.01,-0.45 0.38,-0.82 0.84,-0.82 0.46,0 0.82,0.38 0.82,0.84l-0.03 3.69z"/>
         <path class="fil8" d="M76.59 31.68c0,0.45 -0.37,0.82 -0.83,0.82 -0.46,0 -0.83,-0.38 -0.82,-0.84l0.03 -3.69c0,-0.45 0.37,-0.82 0.83,-0.82 0.46,0.01 0.82,0.38 0.82,0.84l-0.03 3.69z"/>
        </g>
       </g>
      </g>
     </g>
     <g>
      <path class="fil11" d="M52.01 31.48l-32.79 -0.25c-3.34,8.6 -0.34,18.89 -4.04,27.42 11.48,-0.05 22.97,-0.11 34.46,-0.16 1.29,-6.71 1.71,-13.58 1.24,-20.4 -0.16,-2.29 -0.33,-4.85 1.13,-6.61z"/>
      <g>
       <g>
        <polygon class="fil5" points="23.41,41.7 21.19,41.68 21.2,40.73 23.42,40.75 "/>
        <polygon class="fil5" points="26.36,41.72 24.15,41.7 24.15,40.75 26.37,40.77 "/>
        <polygon class="fil5" points="29.31,41.74 27.1,41.73 27.11,40.78 29.32,40.79 "/>
        <polygon class="fil5" points="32.26,41.76 30.05,41.75 30.06,40.8 32.27,40.82 "/>
        <polygon class="fil5" points="35.21,41.79 33,41.77 33.01,40.82 35.22,40.84 "/>
        <polygon class="fil5" points="38.17,41.81 35.95,41.79 35.96,40.84 38.17,40.86 "/>
        <polygon class="fil5" points="41.12,41.83 38.9,41.81 38.91,40.87 41.12,40.88 "/>
        <polygon class="fil5" points="44.07,41.85 41.86,41.84 41.86,40.89 44.08,40.9 "/>
        <polygon class="fil5" points="47.02,41.88 44.81,41.86 44.81,40.91 47.03,40.93 "/>
       </g>
       <g>
        <polygon class="fil10" points="23.39,43.68 21.18,43.66 21.19,42.71 23.4,42.73 "/>
        <polygon class="fil10" points="26.35,43.7 24.13,43.68 24.14,42.73 26.35,42.75 "/>
        <polygon class="fil10" points="29.3,43.72 27.08,43.71 27.09,42.76 29.3,42.77 "/>
        <polygon class="fil10" points="32.25,43.74 30.03,43.73 30.04,42.78 32.26,42.8 "/>
        <polygon class="fil10" points="35.2,43.77 32.99,43.75 32.99,42.8 35.21,42.82 "/>
        <polygon class="fil10" points="38.15,43.79 35.94,43.77 35.94,42.82 38.16,42.84 "/>
        <polygon class="fil10" points="41.1,43.81 38.89,43.79 38.9,42.85 41.11,42.86 "/>
        <polygon class="fil10" points="44.05,43.83 41.84,43.82 41.85,42.87 44.06,42.88 "/>
        <polygon class="fil10" points="47.01,43.86 44.79,43.84 44.8,42.89 47.01,42.91 "/>
       </g>
       <g>
        <polygon class="fil8" points="23.38,45.66 21.17,45.64 21.17,44.69 23.39,44.71 "/>
        <polygon class="fil8" points="26.33,45.68 24.12,45.66 24.12,44.71 26.34,44.73 "/>
        <polygon class="fil8" points="29.28,45.7 27.07,45.68 27.08,44.74 29.29,44.75 "/>
        <polygon class="fil8" points="32.23,45.72 30.02,45.71 30.03,44.76 32.24,44.77 "/>
        <polygon class="fil8" points="35.18,45.75 32.97,45.73 32.98,44.78 35.19,44.8 "/>
        <polygon class="fil8" points="38.14,45.77 35.92,45.75 35.93,44.8 38.14,44.82 "/>
        <polygon class="fil8" points="41.09,45.79 38.87,45.77 38.88,44.82 41.09,44.84 "/>
        <polygon class="fil8" points="44.04,45.81 41.83,45.8 41.83,44.85 44.05,44.86 "/>
        <polygon class="fil8" points="46.99,45.83 44.78,45.82 44.78,44.87 47,44.89 "/>
       </g>
       <g>
        <polygon class="fil3" points="23.36,47.64 21.15,47.62 21.16,46.67 23.37,46.69 "/>
        <polygon class="fil3" points="26.32,47.66 24.1,47.64 24.11,46.69 26.32,46.71 "/>
        <polygon class="fil3" points="29.27,47.68 27.05,47.66 27.06,46.71 29.27,46.73 "/>
        <polygon class="fil3" points="32.22,47.7 30,47.69 30.01,46.74 32.23,46.75 "/>
        <polygon class="fil3" points="35.17,47.72 32.96,47.71 32.96,46.76 35.18,46.78 "/>
        <polygon class="fil3" points="38.12,47.75 35.91,47.73 35.91,46.78 38.13,46.8 "/>
        <polygon class="fil3" points="41.07,47.77 38.86,47.75 38.87,46.8 41.08,46.82 "/>
        <polygon class="fil3" points="44.02,47.79 41.81,47.77 41.82,46.83 44.03,46.84 "/>
        <polygon class="fil3" points="46.98,47.81 44.76,47.8 44.77,46.85 46.98,46.86 "/>
       </g>
      </g>
      <path class="fil10" d="M48.12 39.42l-26.91 -0.21c-0.08,-2.97 0.32,-5.7 1.58,-8.01l26.62 0.2c-1.2,2.57 -1.58,5.25 -1.29,8.02z"/>
     </g>
    </g>
    <g>
     <g>
      <path class="fil12" d="M31.72 18.73c-0.58,-1.23 -1.19,-2.45 -1.86,-3.62 -0.25,-0.44 -0.53,-0.89 -0.94,-1.18 -0.42,-0.28 -1.19,-0.51 -1.6,-0.2l-1.08 0.58c-0.67,0.91 -0.49,2.18 -0.17,3.26 0.52,1.77 1.35,3.45 2.42,4.96 1.78,-0.79 3.12,-2.36 3.23,-3.8z"/>
      <path class="fil13" d="M38.82 15.76c-1.87,2.45 -3.34,4.04 -5.75,5.96 -0.44,-1 -0.89,-2 -1.35,-2.99 -0.11,1.44 -1.45,3.01 -3.23,3.8 1.39,1.95 3.19,3.61 5.26,4.81 1.81,-1.36 3.25,-3.14 4.43,-5.06 1.19,-1.92 1.22,-3.24 2.16,-5.29 -0.58,-0.37 -0.94,-0.85 -1.52,-1.23z"/>
      <g>
       <path class="fil11" d="M48.1 20.22c0.13,-0.71 0.42,-1.39 0.48,-2.12 0.08,-1.07 -0.36,-2.11 -0.54,-3.18 -0.18,-1.07 -0.1,-2.2 0.24,-3.24l-8.14 0c-0.46,0.81 -0.58,1.78 -0.54,2.71 0.04,1.01 0.24,2 0.29,3.01 0.07,1.41 -0.16,2.81 -0.29,4.22 -0.1,1.04 -0.14,2.11 0.04,3.14l9.11 0c-0.5,-1.48 -0.94,-3.02 -0.65,-4.54z"/>
       <g>
        <g>
         <g>
          <path class="fil5" d="M41.74 14.34c-0.51,0 -0.77,0 -1.27,0 0.01,-0.21 0.02,-0.32 0.05,-0.54 0.51,0 0.76,0 1.27,0 -0.03,0.22 -0.04,0.33 -0.05,0.54z"/>
          <path class="fil5" d="M43.43 14.34c-0.51,0 -0.76,0 -1.27,0 0.01,-0.21 0.02,-0.32 0.05,-0.54 0.51,0 0.77,0 1.27,0 -0.03,0.22 -0.04,0.33 -0.05,0.54z"/>
          <path class="fil5" d="M45.12 14.34c-0.51,0 -0.76,0 -1.27,0 0.02,-0.21 0.03,-0.32 0.06,-0.54 0.51,0 0.76,0 1.27,0 -0.03,0.22 -0.04,0.33 -0.06,0.54z"/>
          <path class="fil5" d="M46.82 14.34c-0.51,0 -0.77,0 -1.27,0 0.01,-0.21 0.02,-0.32 0.05,-0.54 0.51,0 0.76,0 1.27,0 -0.03,0.22 -0.04,0.33 -0.05,0.54z"/>
         </g>
         <g>
          <path class="fil10" d="M41.76 15.48c-0.51,0 -0.76,0 -1.27,0 -0.02,-0.22 -0.03,-0.33 -0.03,-0.55 0.5,0 0.76,0 1.27,0 0,0.22 0.01,0.33 0.03,0.55z"/>
          <path class="fil10" d="M43.45 15.48c-0.5,0 -0.76,0 -1.27,0 -0.02,-0.22 -0.03,-0.33 -0.03,-0.55 0.51,0 0.76,0 1.27,0 0,0.22 0.01,0.33 0.03,0.55z"/>
          <path class="fil10" d="M45.15 15.48c-0.51,0 -0.76,0 -1.27,0 -0.02,-0.22 -0.03,-0.33 -0.04,-0.55 0.51,0 0.76,0 1.27,0 0.01,0.22 0.02,0.33 0.04,0.55z"/>
          <path class="fil10" d="M46.84 15.48c-0.51,0 -0.76,0 -1.27,0 -0.02,-0.22 -0.03,-0.33 -0.03,-0.55 0.5,0 0.76,0 1.27,0 0,0.22 0.01,0.33 0.03,0.55z"/>
         </g>
         <g>
          <path class="fil8" d="M41.97 16.63c-0.5,0 -0.76,0 -1.27,0 -0.05,-0.22 -0.08,-0.33 -0.12,-0.55 0.51,0 0.76,0 1.27,0 0.04,0.22 0.07,0.33 0.12,0.55z"/>
          <path class="fil8" d="M43.67 16.63c-0.51,0 -0.76,0 -1.27,0 -0.06,-0.22 -0.09,-0.33 -0.13,-0.55 0.51,0 0.76,0 1.27,0 0.04,0.22 0.07,0.33 0.13,0.55z"/>
          <path class="fil8" d="M45.36 16.63c-0.51,0 -0.76,0 -1.27,0 -0.06,-0.22 -0.08,-0.33 -0.12,-0.55 0.5,0 0.76,0 1.27,0 0.04,0.22 0.06,0.33 0.12,0.55z"/>
          <path class="fil8" d="M47.05 16.63c-0.5,0 -0.76,0 -1.27,0 -0.05,-0.22 -0.08,-0.33 -0.12,-0.55 0.51,0 0.76,0 1.27,0 0.04,0.22 0.07,0.33 0.12,0.55z"/>
         </g>
         <g>
          <path class="fil3" d="M42.37 17.76c-0.51,0 -0.76,0 -1.27,0 -0.09,-0.22 -0.14,-0.33 -0.21,-0.54 0.51,0 0.76,0 1.27,0 0.07,0.21 0.12,0.32 0.21,0.54z"/>
          <path class="fil3" d="M44.06 17.76c-0.5,0 -0.76,0 -1.27,0 -0.09,-0.22 -0.13,-0.33 -0.21,-0.54 0.51,0 0.76,0 1.27,0 0.08,0.21 0.12,0.32 0.21,0.54z"/>
          <path class="fil3" d="M45.76 17.76c-0.51,0 -0.77,0 -1.27,0 -0.1,-0.22 -0.14,-0.33 -0.22,-0.54 0.51,0 0.77,0 1.27,0 0.08,0.21 0.12,0.32 0.22,0.54z"/>
          <path class="fil3" d="M47.45 17.76c-0.51,0 -0.76,0 -1.27,0 -0.09,-0.22 -0.14,-0.33 -0.21,-0.54 0.51,0 0.76,0 1.27,0 0.07,0.21 0.12,0.32 0.21,0.54z"/>
         </g>
        </g>
       </g>
      </g>
      <path class="fil13" d="M39.38 17c-0.22,0.12 -0.54,0.15 -0.67,-0.07 -0.04,-0.07 -0.06,-0.16 -0.07,-0.25 -0.07,-0.65 -0.14,-1.3 -0.22,-1.95 -0.01,-0.13 -0.03,-0.27 0.01,-0.4 0.07,-0.2 0.25,-0.33 0.37,-0.5 0.1,-0.15 0.15,-0.34 0.27,-0.48 0.4,-0.53 1.33,-0.31 1.78,-0.79 0.13,0.2 0.04,0.47 -0.12,0.64 -0.15,0.18 -0.37,0.28 -0.57,0.41 -0.2,0.13 -0.39,0.3 -0.44,0.53 -0.06,0.31 0.15,0.59 0.28,0.87 0.15,0.35 0.19,0.75 0.08,1.12 -0.11,0.37 -0.36,0.69 -0.7,0.87z"/>
     </g>
     <g>
      <g>
       <g>
        <g>
         <path class="fil14" d="M37.89 8.21c0.12,0.75 -0.08,1.55 -0.54,2.13 -0.28,1.41 -1.41,2.58 -2.75,2.87 -1.26,-0.54 -2.13,-1.97 -2.05,-3.39 0.08,-1.43 1.09,-2.75 2.4,-3.14 0.73,-0.22 1.59,-0.13 2.12,0.44l0.82 1.09z"/>
        </g>
       </g>
      </g>
      <g>
       <g>
        <g>
         <path class="fil15" d="M35.79 6.58c-0.28,-0.02 -0.57,0.02 -0.84,0.1 -1.31,0.39 -2.32,1.71 -2.4,3.14 -0.08,1.42 0.79,2.85 2.05,3.39 0.13,-0.02 0.25,-0.06 0.37,-0.1 -0.46,-2.26 -0.5,-4.72 0.82,-6.53z"/>
        </g>
       </g>
      </g>
      <g>
       <g>
        <g>
         <path class="fil14" d="M29.66 14.14c-0.14,-0.16 -0.01,-0.4 0.12,-0.58 1.03,-1.38 1.78,-2.91 2.04,-4.62 1.05,0.44 2.09,0.63 3.22,0.81 -0.48,1.87 -0.81,3.78 -0.99,5.7 -1.38,-0.4 -2.77,-0.8 -4.16,-1.19 -0.08,-0.03 -0.17,-0.05 -0.23,-0.12z"/>
        </g>
       </g>
      </g>
      <path class="fil16" d="M38.79 8.05c0.62,-0.19 1.11,-0.75 1.23,-1.39 -0.42,0.23 -0.91,0.29 -1.37,0.18 0.13,0.01 0.26,-0.05 0.35,-0.15 -0.54,-0.03 -1.04,-0.31 -1.48,-0.64 -0.44,-0.32 -0.83,-0.7 -1.29,-0.99 -0.46,-0.3 -1.01,-0.5 -1.55,-0.41 -0.06,0.01 -0.12,0.03 -0.19,0.05 -0.31,-0.04 -0.63,-0.03 -0.93,0.05 -1.04,0.27 -1.78,1.26 -2.01,2.31 -0.24,1.05 -0.35,2.28 -0.07,3.32 1.06,0.5 2.61,0.46 3.73,0.13 0.16,-0.05 0.31,-0.11 0.46,-0.17 0.07,-0.2 0.09,-0.42 0.13,-0.64 0.04,-0.25 0.11,-0.5 0.28,-0.69 0.17,-0.18 0.48,-0.26 0.68,-0.12 0.14,0.1 0.21,0.27 0.21,0.43 0.01,0.08 0,0.15 -0.01,0.23 0.22,-0.19 0.43,-0.4 0.61,-0.62 0.76,0.06 1.55,-0.31 1.96,-0.96 -0.24,0.08 -0.49,0.1 -0.74,0.08z"/>
      <g>
       <g>
        <path class="fil15" d="M36.5 9.74c0.04,-0.05 0.1,-0.09 0.15,-0.13 0.11,-0.09 0.16,-0.26 0.1,-0.39 -0.05,-0.13 -0.21,-0.22 -0.35,-0.16 -0.13,0.05 -0.19,0.2 -0.2,0.34 0,0.14 0.05,0.29 0.1,0.43 -0.06,-0.05 -0.15,-0.05 -0.21,0 -0.06,0.04 -0.08,0.13 -0.05,0.19 0.02,0.05 0.06,0.09 0.09,0.13 0.03,0.04 0.06,0.09 0.04,0.14 -0.01,0.03 -0.04,0.05 -0.05,0.08 -0.02,0.03 -0.01,0.07 0.02,0.08 0.02,0.01 0.03,-0.01 0.05,-0.02 0.13,-0.1 0.23,-0.25 0.25,-0.42 0.01,-0.09 0.01,-0.19 0.06,-0.27z"/>
       </g>
      </g>
      <g>
       <g>
        <path class="fil0" d="M35.98 6.15c0.13,0.07 0.11,0.27 0.21,0.38 0.11,0.13 0.31,0.1 0.48,0.1 0.31,0 0.6,0.16 0.83,0.38 0.22,0.21 0.39,0.48 0.55,0.74 0.11,-0.17 0.22,-0.34 0.33,-0.51 -1.11,-0.65 -2.22,-1.3 -3.34,-1.95 0.06,0.28 0.12,0.55 0.17,0.83 0.01,0.05 0.02,0.1 0.06,0.14 0.08,0.09 0.24,0.04 0.35,-0.03 0.11,-0.06 0.25,-0.14 0.36,-0.08z"/>
       </g>
      </g>
     </g>
     <g>
      <g>
       <g>
        <path class="fil16" d="M23.25 68.23c-0.28,-0.16 -0.73,-0.22 -1.04,-0.25 -0.32,-0.03 -0.59,-0.13 -0.86,-0.28 -0.28,-0.16 -0.49,-0.48 -0.42,-0.8 -0.83,-0.07 -1.43,-0.33 -2.16,-0.72 0,0.59 -0.38,1.12 -0.55,1.69 -0.04,0.14 -0.04,0.31 -0.02,0.47 -0.08,0.39 -0.06,0.79 0.07,1.17 0.68,0.38 1.48,0.54 2.26,0.44 0.02,-0.12 0.05,-0.25 0.09,-0.37 0.42,-0.1 0.72,-0.16 1.1,-0.09 0.41,0.06 0.55,0.14 0.82,0.11 0.23,-0.02 0.34,-0.13 0.55,-0.22 0.21,-0.09 0.47,-0.34 0.52,-0.56 0.08,-0.31 -0.08,-0.43 -0.36,-0.59z"/>
       </g>
      </g>
      <g>
       <g>
        <path class="fil17" d="M20.78 67.43c-0.61,-0.28 -1.22,-0.57 -1.87,-0.71 -0.08,0.12 -0.16,0.26 -0.21,0.4 -0.04,0.15 -0.03,0.32 0.06,0.44 0.09,0.12 0.24,0.18 0.38,0.22 0.56,0.15 1.19,0.01 1.64,-0.35z"/>
       </g>
      </g>
      <g>
       <g>
        <g>
         <path class="fil18" d="M21.1 31.73c-2.21,6.13 -0.58,9.24 -0.32,14.04 0.28,5.13 0.83,9.56 -1.04,14.34 -0.3,0.76 -0.71,3.5 -1.11,4.49 -0.31,0.76 -0.61,1.16 -0.15,1.84 0.46,0.68 1.91,1.42 2.65,1.08 2.09,-5.39 4.56,-10.62 6.5,-16.06 1.93,-5.39 3.43,-12.13 3.34,-17.86l-9.87 -1.87z"/>
        </g>
       </g>
      </g>
      <g>
       <g>
        <g>
         <path class="fil19" d="M23.7 32.22c-2.48,6.82 0.02,15.24 -0.56,22.12 -0.42,4.61 -1.52,8.97 -3.12,13.14 0.41,0.14 0.82,0.17 1.11,0.04 2.09,-5.39 4.56,-10.62 6.5,-16.06 1.76,-4.91 3.04,-12.26 3.19,-17.89l-7.12 -1.35z"/>
        </g>
       </g>
      </g>
      <g>
       <g>
        <g>
         <path class="fil16" d="M23.39 32.16c-3.59,8.21 2.39,17.4 0.59,25.98 -0.21,1.22 -0.33,2.52 -0.57,3.81 1.46,-3.48 2.95,-6.94 4.22,-10.49 1.8,-5.05 3.32,-12.22 3.44,-17.85l-7.68 -1.45z"/>
        </g>
       </g>
      </g>
     </g>
     <g>
      <g>
       <g>
        <path class="fil16" d="M32.31 68.67c-0.14,-0.32 -0.49,-0.5 -0.84,-0.55 -0.35,-0.05 -0.7,0 -1.05,0 -1.39,0.01 -2.74,-0.7 -4.1,-0.49 -0.01,0.59 -0.1,1.18 -0.03,1.77 0.01,0.11 0.03,0.22 0.06,0.32 0.01,0.3 0.06,0.6 0.11,0.9 0.03,0.15 0.06,0.31 0.15,0.44 0.12,0.16 0.32,0.24 0.51,0.3 0.75,0.2 1.58,0.06 2.21,-0.38 0.08,-0.05 0.16,-0.11 0.2,-0.19 0.03,-0.06 0.04,-0.12 0.04,-0.19 0.21,-0.09 0.42,-0.17 0.63,-0.23 0.5,-0.14 0.71,-0.19 1.17,-0.44 0.46,-0.24 1.15,-0.78 0.94,-1.26z"/>
       </g>
      </g>
      <g>
       <g>
        <path class="fil17" d="M29.64 68.44c0.11,-0.04 0.24,0.05 0.27,0.17 0.03,0.11 -0.03,0.23 -0.12,0.31 -0.09,0.08 -0.2,0.13 -0.32,0.16 -0.5,0.16 -1.02,0.19 -1.55,0.18 -0.31,0 -0.63,-0.02 -0.92,-0.13 -0.29,-0.12 -0.55,-0.35 -0.63,-0.65 -0.07,-0.3 0.09,-0.67 0.39,-0.76l2.88 0.72z"/>
       </g>
      </g>
      <g>
       <g>
        <g>
         <path class="fil18" d="M22.28 31.95c-1.25,7.43 0.54,9.56 2.51,15.99 0.63,2.09 1.65,7.36 1.37,9.49 -0.29,2.14 0,5.92 0.06,10.77 1.2,0.86 2.11,0.77 3.41,0.45 0.8,-5.74 1.75,-11.62 1.93,-17.09 0.16,-5.11 -0.22,-11.99 -0.32,-17.91l-8.96 -1.7z"/>
        </g>
       </g>
      </g>
      <g>
       <g>
        <g>
         <path class="fil19" d="M26.32 32.71l-4.04 -0.76c-1.25,7.43 0.54,9.56 2.51,15.99 0.63,2.09 1.65,7.36 1.37,9.49 -0.29,2.14 0,5.92 0.06,10.77 0.56,0.4 1.06,0.6 1.57,0.66 0.49,-6.03 0.86,-12.04 0.39,-18.15 -0.5,-5.45 -2.8,-12.28 -1.86,-18z"/>
        </g>
       </g>
      </g>
     </g>
     <g>
      <g>
       <g>
        <g>
         <path class="fil20" d="M28.1 13.46c0.63,-0.39 1.14,-0.98 1.44,-1.65 2.26,0.13 4.4,1.51 5.46,3.51 -0.93,-0.36 -1.86,-0.71 -2.79,-1.06 -1.17,-0.44 -2.38,-0.89 -3.64,-0.88l-0.47 0.08z"/>
        </g>
       </g>
       <g>
        <g>
         <g>
          <g>
           <path class="fil20" d="M31.76 34.38c0,-0.21 0.01,-0.4 0.02,-0.61 0.07,-2.5 0.45,-3.5 0.51,-4.27 0.13,-1.88 0.74,-2.51 1.68,-4.15 0.71,-1.25 1.79,-3.36 2.53,-4.6 0.74,-1.23 1.13,-2.85 0.39,-4.08 -0.45,-0.74 -1.21,-1.21 -1.97,-1.6 -0.76,-0.4 -1.54,-0.74 -2.33,-1.05 -1.53,-0.61 -3.97,-1.59 -5.61,-0.45 -0.8,0.56 -1.76,1.62 -2.26,2.46 -2.75,4.6 -2.65,8.21 -4.08,16.15 0,0.04 -0.02,0.1 -0.04,0.17 -0.12,0.39 0.1,0.81 0.5,0.91 3.5,0.92 7.08,1.26 10.66,1.12z"/>
          </g>
         </g>
        </g>
       </g>
       <g>
        <g>
         <path class="fil16" d="M28.76 13.6c1.56,0.12 3.11,0.44 4.59,0.94 -1.3,-0.87 -2.85,-1.36 -4.42,-1.4 -0.11,-0.01 -0.24,0 -0.34,0.06 -0.11,0.06 -0.17,0.2 -0.1,0.3 0.06,0.08 0.17,0.1 0.27,0.1z"/>
        </g>
       </g>
       <g>
        <g>
         <g>
          <g>
           <path class="fil12" d="M31.76 34.38c0,-0.21 0.01,-0.4 0.02,-0.61 0.07,-2.5 0.45,-3.5 0.51,-4.27 0.13,-1.88 0.74,-2.51 1.68,-4.15 0.71,-1.25 1.79,-3.36 2.53,-4.6 0.69,-1.14 1.07,-2.62 0.53,-3.81 -5.87,3.12 -7.4,11.1 -7.32,17.47 0.68,0.01 1.37,-0.01 2.05,-0.03z"/>
          </g>
         </g>
        </g>
       </g>
       <path class="fil16" d="M34.98 22.47c-0.86,-0.19 -1.44,-1.09 -1.49,-1.97 -0.05,-0.89 0.32,-1.75 0.78,-2.5 -0.29,0.74 -0.43,1.56 -0.32,2.35 0.1,0.8 0.45,1.57 1.03,2.12z"/>
      </g>
      <g>
       <path class="fil16" d="M30.51 34.33l-0.14 -0.01c0.34,-4.14 1.58,-8.45 3.68,-12.8l0.12 0.06c-2.09,4.34 -3.32,8.63 -3.66,12.75z"/>
      </g>
     </g>
     <g>
      <g>
       <g>
        <g>
         <path class="fil14" d="M52.61 17.29c-0.87,0.27 -1.46,0.32 -2.37,0.4 -0.3,0.02 -0.62,0.04 -0.86,0.23 -0.37,0.3 -0.52,0.93 -0.81,1.31 -0.04,0.05 -0.07,0.09 -0.1,0.13 -1.25,0.71 -2.53,1.74 -3.87,2.26 -0.65,0.25 -1.39,0.56 -1.97,0.99 -0.3,-0.3 -0.62,-0.58 -0.93,-0.88 -0.39,-0.37 -0.73,-0.73 -1.02,-1.06 -0.64,1.38 -1.57,2.57 -2.71,3.52 0.15,0.11 0.31,0.25 0.5,0.41 0.82,0.71 1.6,1.46 2.49,2.08 0.5,0.34 1.08,0.65 1.69,0.58 0,0 0,0 0.01,0 0.11,0.02 0.23,0.04 0.34,0.03 0.59,-0.04 1.07,-0.47 1.49,-0.89 0.76,-0.75 1.49,-1.53 2.21,-2.32 1.04,-1.14 2.08,-2.28 3.12,-3.41 0.61,0.05 0.99,-0.42 1.33,-0.85 -0.13,0.2 -0.21,0.42 -0.36,0.63 0.08,0.28 0.09,0.28 0.33,0.29 0.14,-0.43 0.65,-0.62 0.97,-0.94 0.1,-0.09 0.21,-1.07 0.13,-1.14 -0.27,-0.25 -0.69,-0.38 -1.02,-0.61 0.63,-0.11 1.93,-0.3 1.41,-0.76z"/>
         <path class="fil13" d="M42.04 25.55c-1.16,-0.49 -2.26,-1.21 -3.32,-2.05 -0.24,0.24 -0.49,0.47 -0.75,0.69 0.15,0.11 0.31,0.25 0.5,0.41 0.82,0.71 1.6,1.46 2.49,2.08 0.5,0.34 1.08,0.65 1.69,0.58 0,0 0,0 0.01,0 0.11,0.02 0.23,0.04 0.34,0.03 0.59,-0.04 1.07,-0.47 1.49,-0.89 0.76,-0.75 1.49,-1.53 2.21,-2.32 1.04,-1.14 2.08,-2.27 3.12,-3.41 -2.86,1.61 -4.37,6.34 -7.78,4.88z"/>
         <path class="fil20" d="M40.68 20.67c-1.24,-1.42 -1.74,-2.52 -3.43,-4.15 -0.16,-0.15 -0.34,-0.31 -0.57,-0.35 -0.27,-0.05 -0.55,0.1 -0.77,0.26 -1.1,0.78 -1.87,2.01 -2.07,3.34 -0.11,0.7 -0.06,1.46 0.36,2.03 0.32,0.45 0.81,0.73 1.29,1.01 1.3,0.76 1.59,0.69 2.48,1.38 1.14,-0.95 2.07,-2.14 2.71,-3.52z"/>
        </g>
       </g>
      </g>
      <g>
       <g>
        <g>
         <path class="fil12" d="M38.85 23.36c-1.64,-1.13 -3.36,-1.92 -4.97,-3.79 -0.01,0.07 -0.03,0.13 -0.04,0.2 -0.11,0.7 -0.06,1.46 0.36,2.03 0.32,0.45 0.81,0.73 1.29,1.01 1.3,0.76 1.59,0.69 2.48,1.38 0.31,-0.26 0.61,-0.54 0.88,-0.83z"/>
        </g>
       </g>
      </g>
      <g>
       <path class="fil16" d="M37.51 23.88l-0.1 -0.11c1.08,-1.07 2,-2.3 2.73,-3.64l0.13 0.07c-0.73,1.36 -1.66,2.6 -2.76,3.68z"/>
      </g>
     </g>
    </g>
   </g>
  </g>
 </g>
</svg>
