<?xml version="1.0" encoding="UTF-8"?>
<!DOCTYPE svg PUBLIC "-//W3C//DTD SVG 1.1//EN" "http://www.w3.org/Graphics/SVG/1.1/DTD/svg11.dtd">
<!-- Creator: CorelDRAW -->
<svg xmlns="http://www.w3.org/2000/svg" xml:space="preserve" width="956px" height="546px" version="1.1" style="shape-rendering:geometricPrecision; text-rendering:geometricPrecision; image-rendering:optimizeQuality; fill-rule:evenodd; clip-rule:evenodd"
viewBox="0 0 754.91 430.78"
 xmlns:xlink="http://www.w3.org/1999/xlink"
 xmlns:xodm="http://www.corel.com/coreldraw/odm/2003">
 <defs>
  <style type="text/css">
   <![CDATA[
    .fil11 {fill:#00A0B3;fill-rule:nonzero}
    .fil3 {fill:#012A44;fill-rule:nonzero}
    .fil13 {fill:#01414D;fill-rule:nonzero}
    .fil8 {fill:#0A566B;fill-rule:nonzero}
    .fil7 {fill:#0F6787;fill-rule:nonzero}
    .fil15 {fill:#46BAEB;fill-rule:nonzero}
    .fil2 {fill:#708390;fill-rule:nonzero}
    .fil10 {fill:#A5AFB3;fill-rule:nonzero}
    .fil9 {fill:#C1623A;fill-rule:nonzero}
    .fil0 {fill:#C6D3DD;fill-rule:nonzero}
    .fil16 {fill:#DA4D8C;fill-rule:nonzero}
    .fil4 {fill:#DB8356;fill-rule:nonzero}
    .fil6 {fill:#DBA883;fill-rule:nonzero}
    .fil5 {fill:#EDC6A3;fill-rule:nonzero}
    .fil1 {fill:#F2E9CC;fill-rule:nonzero}
    .fil14 {fill:#FDD633;fill-rule:nonzero}
    .fil12 {fill:white;fill-rule:nonzero}
   ]]>
  </style>
 </defs>
 <g id="Слой_x0020_1">
  <metadata id="CorelCorpID_0Corel-Layer"/>
  <g id="_2698291812576">
   <g>
    <path class="fil0" d="M745.91 388.91c0,23.12 -166.98,41.87 -372.96,41.87 -205.97,0 -372.95,-18.75 -372.95,-41.87 0,-23.13 11.33,-41.87 372.95,-41.87 205.98,0 372.96,18.74 372.96,41.87z"/>
    <path class="fil1" d="M650.65 373.21l12.78 -8.92c35.35,-36.89 71.88,-75.77 86.31,-124.78 14.43,-49.01 -1.28,-110.98 -47.85,-131.99 -29.34,-13.24 -63.75,-7.85 -94.78,-16.43 -29.42,-8.13 -53.78,-28.15 -79.79,-44.13 -101.14,-62.16 -236.08,-61.8 -339.6,-3.7 -103.52,58.1 -173.35,170.09 -185.44,288.19 -1.41,13.84 -1.66,28.88 2.69,41.76l645.68 0z"/>
   </g>
   <g>
    <g>
     <path class="fil2" d="M511.74 397.89c-4.25,0 -8.58,-0.67 -12.78,-1.32l-0.7 -0.1c-25.09,-3.84 -51.03,-2.25 -76.11,-0.72 -9.24,0.57 -18.79,1.15 -28.18,1.45 -16.15,0.52 -33.14,0.09 -47.86,-6.73l1.38 -2.99c13.31,6.17 28.17,7.03 46.38,6.44 9.34,-0.31 18.86,-0.89 28.08,-1.45 25.25,-1.55 51.37,-3.15 76.81,0.74l0.7 0.11c4.75,0.74 9.68,1.49 14.25,1.22 2.51,-0.14 4.83,-1.35 6.37,-3.31 1.56,-1.96 2.19,-4.51 1.75,-7 -2.33,-13.17 -2.39,-26.51 -0.16,-39.65l0.31 -1.77c0.69,-3.91 1.4,-7.92 0.87,-11.65 -0.35,0.57 -0.73,1.1 -1.13,1.58 -2.74,3.3 -7.34,4.27 -11.46,2.4 -2.93,-1.33 -4.68,-3.94 -4.82,-7.15 -0.14,-3.37 1.63,-6.68 4.4,-8.23 2.3,-1.3 5.06,-1.43 7.78,-0.38 1.76,0.68 3.4,1.82 4.75,3.25 0,-0.01 0,-0.02 0,-0.03 3.34,-18.04 -0.26,-36.65 -3.74,-54.65 -2.22,-11.53 -4.53,-23.45 -5.07,-35.3 -0.2,-4.4 -0.1,-9.04 1.97,-13.06 2.09,-4.05 7.04,-7.61 12.1,-6.28l-0.85 3.18c-3.27,-0.86 -6.81,1.66 -8.33,4.61 -1.72,3.33 -1.79,7.45 -1.61,11.4 0.54,11.61 2.82,23.41 5.02,34.83 3.54,18.3 7.2,37.22 3.75,55.87 -0.21,1.11 -0.45,2.15 -0.73,3.12 0.19,0.4 0.35,0.82 0.49,1.23 1.73,5.21 0.78,10.61 -0.15,15.83l-0.3 1.75c-2.17,12.77 -2.12,25.73 0.15,38.53 0.61,3.41 -0.27,6.91 -2.41,9.61 -2.12,2.69 -5.32,4.36 -8.76,4.55 -0.72,0.05 -1.44,0.07 -2.16,0.07zm2.26 -75.93l0 0c-0.81,0 -1.69,0.18 -2.55,0.66 -1.72,0.97 -2.82,3.07 -2.72,5.23 0.04,1.13 0.48,3.2 2.9,4.29 2.78,1.28 5.75,0.68 7.56,-1.5 0.84,-1.02 1.56,-2.36 2.14,-4 -1.16,-1.87 -2.96,-3.44 -4.9,-4.19 -0.67,-0.26 -1.51,-0.49 -2.43,-0.49z"/>
    </g>
    <g>
     <g>
      <g>
       <g>
        <g>
         <g>
          <path class="fil3" d="M670.71 369.19c3.27,0 5.93,2.66 5.93,5.94 0,3.27 -2.66,5.93 -5.93,5.93 -3.28,0 -5.94,-2.66 -5.94,-5.93 0,-3.28 2.66,-5.94 5.94,-5.94z"/>
         </g>
        </g>
        <g>
         <g>
          <path class="fil3" d="M562.27 369.19c3.28,0 5.94,2.66 5.94,5.94 0,3.27 -2.66,5.93 -5.94,5.93 -3.27,0 -5.93,-2.66 -5.93,-5.93 0,-3.28 2.66,-5.94 5.93,-5.94z"/>
         </g>
        </g>
        <g>
         <g>
          <path class="fil3" d="M625.44 370.67c-3.85,-0.55 -7.49,-2.27 -10.42,-4.81l-54.66 4.42 0 -1.4c0,-1.34 1.03,-2.46 2.36,-2.56 7,-0.57 27.59,-2.27 35.51,-3.2 9.61,-1.13 13.57,-6.22 13.57,-6.22l1.24 0 0 -32.82 1.26 0 0 -47.09 4.73 0 0 47.09 1.25 0 0 32.82 1.25 0c0,0 3.96,5.09 13.57,6.22 7.92,0.93 28.51,2.63 35.5,3.2 1.34,0.1 2.37,1.22 2.37,2.56l0 1.4 -49.37 -3.99c0.9,0.77 1.87,1.48 2.84,2.13 0.81,0.55 1.65,1.09 2.24,1.87 0.28,0.39 0.49,0.81 0.64,1.25l2.92 0 0 11.02 -9.77 0 0 -11.02 3.07 0c-0.04,-0.29 -0.06,-0.58 -0.1,-0.87z"/>
         </g>
        </g>
       </g>
       <g>
        <g>
         <path class="fil4" d="M642.11 278.09l-57.17 0c-6.69,-2.79 -11.72,-8.46 -12.4,-15.26 -0.71,-7.11 2.72,-14.4 6.68,-21.04 3.97,-6.63 8.61,-13.14 10.71,-20.29 2.31,-7.87 1.6,-16.6 7.09,-23.35 4.92,-6.04 14.48,-8.76 21.56,-6.13l6.21 0.29 13.11 -0.29c7.68,-2.63 16.62,0.09 20.17,6.13 3.97,6.75 2.51,12.24 1.82,23.35 -0.45,7.26 -1.43,13.08 -0.72,20.29 0.82,8.44 2.15,14.22 -0.17,21.33 -2.22,6.81 -9.57,12.18 -16.89,14.97z"/>
        </g>
       </g>
       <g>
        <g>
         <path class="fil3" d="M639.41 272.17l-51.13 0c-5.98,-2.6 -10.48,-7.89 -11.09,-14.23 -0.64,-6.63 2.43,-13.42 5.98,-19.6 3.55,-6.19 7.7,-12.25 9.57,-18.91 2.07,-7.34 1.43,-15.48 6.35,-21.77 4.39,-5.63 12.95,-8.16 19.28,-5.71l5.55 0.28 11.73 -0.28c6.87,-2.45 14.87,0.08 18.04,5.71 3.55,6.29 2.25,11.41 1.63,21.77 -0.4,6.76 -1.28,12.18 -0.65,18.91 0.74,7.86 1.92,13.25 -0.15,19.88 -1.98,6.34 -8.56,11.35 -15.11,13.95z"/>
        </g>
       </g>
      </g>
      <g>
       <g>
        <g>
         <path class="fil4" d="M594.41 164.77c4.31,-5.3 8.71,-9.74 13.02,-14.04 0.64,-0.64 1.22,-1.38 2.04,-1.75 1.8,-0.8 3.89,0.26 5.32,1.61 4.21,4 5.19,10.98 2.24,15.98 -1.86,3.16 -4.94,5.37 -7.83,7.63 -0.71,0.55 -1.39,1.13 -2.09,1.7 -2.93,-5.05 -7.2,-9.1 -12.7,-11.13z"/>
        </g>
       </g>
       <g>
        <g>
         <path class="fil5" d="M576.68 182.81c1.34,-2.35 3.39,-4.21 5.38,-6.04 4.22,-3.89 9.25,-8.22 13.27,-12.32 5.5,2.03 8.85,6.4 11.78,11.45 -3.64,2.99 -7.1,6.21 -10.33,9.65 -1.93,2.06 -3.79,4.2 -6.03,5.92 -2.23,1.71 -4.92,2.99 -7.73,3.02 -2.82,0.04 -5.75,-1.38 -7,-3.9 -1.2,-2.43 -0.68,-5.42 0.66,-7.78z"/>
        </g>
       </g>
       <g>
        <g>
         <path class="fil3" d="M594.28 165.49c0.35,-0.35 0.71,-0.7 1.05,-1.04 5.5,2.03 8.85,6.4 11.78,11.45 -3.64,2.99 -7.1,6.21 -10.33,9.65 -1.42,1.52 -2.82,3.09 -4.35,4.49 4.54,-6.85 5.62,-16.71 1.85,-24.55z"/>
        </g>
       </g>
       <g>
        <path class="fil5" d="M595.55 124.74c-0.29,-0.44 -0.9,-0.54 -1.42,-0.5 -1.59,0.12 -3.05,1.28 -3.53,2.8 -0.17,0.54 -0.25,1.14 -0.48,1.65 -2.62,-1.81 -1.73,-2.73 -2,-4.06 1.34,-0.97 2.92,-2.14 4.3,-3.04 2.32,-1.53 1.62,-2.73 1.43,-4.31 -3.43,2.24 -7.12,4.08 -10.97,5.48 -0.46,0.16 -0.93,0.33 -1.31,0.62 -0.32,0.24 -0.57,0.6 -0.64,0.98 -0.35,0.79 -0.93,1.35 -1.68,1.68 -0.57,0.25 -0.93,0.84 -0.92,1.47 0.01,1.34 -0.68,2.79 -1.73,3.63 -0.65,0.51 -0.94,1.35 -0.79,2.16 0.72,4.01 1.44,8.01 2.17,12.02 0.42,6.73 -1.13,13.45 -2.46,20.08 -1.44,7.1 -2.6,14.54 -0.78,21.54 0.72,2.78 2.09,5.63 4.57,6.89 2.52,1.27 5.7,0.49 7.83,-1.43 2.12,-1.92 3.29,-4.8 3.74,-7.71 0.45,-2.9 0.26,-5.87 0.06,-8.81 -0.62,-9.21 -2.25,-18.45 -2.87,-27.67l0.25 -3.19c1.17,-1.05 2.25,-2.13 2.49,-3.64 0.27,-1.73 -0.21,-3.16 -0.44,-4.88 0.3,-1.13 0.35,-2.45 1.05,-3.37 0.78,-1.02 1.79,-1.89 2.28,-3.07 0.36,-0.87 0.41,-1.86 0.89,-2.67 0.26,-0.43 0.62,-0.79 0.87,-1.23 0.25,-0.43 0.37,-1 0.09,-1.42z"/>
       </g>
       <g>
        <path class="fil6" d="M588.07 148.21l0.25 -3.19c0.95,-0.85 1.8,-1.72 2.23,-2.82 -1.73,1.52 -3.78,3.63 -6.58,3.63 3.27,16.34 3.07,31.66 -5.1,46.37 -0.16,0.35 -0.34,0.68 -0.52,1.02 0.3,0.23 0.62,0.43 0.96,0.61 2.52,1.27 5.7,0.49 7.83,-1.43 2.12,-1.92 3.29,-4.8 3.74,-7.71 0.45,-2.9 0.26,-5.87 0.06,-8.81 -0.62,-9.21 -2.25,-18.45 -2.87,-27.67z"/>
       </g>
       <g>
        <path class="fil6" d="M581.09 139.27c-0.11,-1.66 -0.92,-3.26 -2.19,-4.34 1.01,0.46 2.13,0.68 3.24,0.64 -0.23,0.57 -0.35,1.22 -0.17,1.81 0.18,0.59 0.69,1.1 1.31,1.14 0.61,0.04 1.24,-0.51 1.16,-1.12 0.54,0.38 1.29,0.42 1.86,0.1 0.57,-0.32 0.92,-0.99 0.87,-1.64 1.36,-0.81 2.06,-2.58 1.62,-4.09 0.71,1.94 0.92,4.1 0.35,6.08 -0.58,1.99 -1.99,3.77 -3.91,4.54 -0.66,0.27 -1.39,0.42 -2.1,0.3 -0.7,-0.12 -1.38,-0.53 -1.71,-1.16 -0.36,-0.68 -0.28,-1.5 -0.33,-2.26z"/>
       </g>
      </g>
      <g>
       <g>
        <g>
         <path class="fil3" d="M545.99 244.42c18.2,-9.56 39.44,-12.68 57.12,-23.11l17.07 0c3.65,1.59 6.73,5.06 7.98,8.94 2.02,6.22 3.53,7.78 1.77,14.07 -1.08,3.81 -4.64,8.71 -7.83,11.05 -3.25,2.38 -13.48,4.41 -17.51,4.38 -8.64,-0.08 -31.21,5.7 -44.91,9.6 -5.44,1.55 -11.36,0.19 -15.37,-3.79 -7.21,-7.17 -6.69,-13.5 1.68,-21.14z"/>
        </g>
       </g>
       <g>
        <g>
         <g>
          <g>
           <path class="fil5" d="M565.6 357.44c5.26,0.47 10.61,0.31 15.98,-0.78 -2,8.45 -3.83,16.99 -4.02,26.31 -4.97,0.27 -9.95,0.53 -14.92,0.79 2.04,-8.65 2.87,-17.46 2.96,-26.32z"/>
          </g>
         </g>
         <g>
          <g>
           <g>
            <path class="fil7" d="M546.14 381.38c4.66,-1.68 9.76,-2.39 14.03,-4.78 1.4,-0.79 2.67,-1.75 3.79,-2.85 4.9,2.09 0.98,5.43 5.1,6.94 0.75,0.35 6.84,-2.7 8.86,-1.17 -0.31,3.15 0.74,8.49 0.21,11.62l-36.73 0.04c-1.71,-0.11 -3.41,-0.22 -5.12,-0.33 0.57,-4.57 5.2,-7.8 9.86,-9.47z"/>
           </g>
          </g>
         </g>
         <g>
          <g>
           <polygon class="fil3" points="535.84,392.6 578.82,392.6 578.82,390.03 535.84,390.03 "/>
          </g>
         </g>
        </g>
        <g>
         <g>
          <g>
           <path class="fil7" d="M561.22 287.23c1.52,-4.62 4.42,-8.65 7.46,-12.45 7.23,-9.02 15.48,-17.19 22.48,-26.38 6.15,-8.09 11.38,-17.21 13.44,-27.09l37.74 0c2.85,13.46 -0.29,28.1 -8.48,39.17 -12.23,16.52 -31,21.63 -47.86,33.38 7.17,25.09 1.79,44.25 -2.84,63.82 -6.31,1.29 -12.6,1.47 -18.77,0.92 0.19,-17.12 -1.94,-34.44 -3.84,-51.52 -0.73,-6.63 -1.41,-13.51 0.67,-19.85z"/>
          </g>
         </g>
         <g>
          <g>
           <path class="fil8" d="M642.34 221.31l-10.08 0c0.42,8.14 0.25,15.8 -3.96,22.11 -13.16,19.74 -42.76,29.6 -49.34,46.05 -6.11,22.39 4.39,14.94 -3.98,68.95 4.3,0.04 3.83,0.15 8.18,-0.74 4.63,-19.57 10.02,-38.73 2.84,-63.82 16.86,-11.75 35.63,-16.86 47.86,-33.38 8.19,-11.07 11.33,-25.71 8.48,-39.17z"/>
          </g>
         </g>
         <g>
          <g>
           <path class="fil3" d="M561.22 287.23c1.52,-4.62 4.42,-8.65 7.46,-12.45 3.54,-4.42 7.34,-8.64 11.1,-12.88 5.9,5.33 14.63,6.56 19.35,14.81 1.47,2.36 2.35,4.97 2.74,7.66 -5.31,2.89 -10.68,5.87 -15.87,9.49 1.42,4.99 2.34,9.73 2.88,14.3 -0.27,0.11 -0.53,0.24 -0.81,0.33 0.28,-0.09 0.54,-0.22 0.81,-0.33 0.29,2.49 0.48,4.93 0.55,7.32 -5.94,-12.84 -15.16,-24.52 -28.74,-26.29 0.16,-0.66 0.32,-1.31 0.53,-1.96z"/>
          </g>
         </g>
        </g>
       </g>
       <g>
        <g>
         <g>
          <g>
           <path class="fil5" d="M597.28 289.38c3.92,7.13 8.75,12.11 15.2,16.81 -2.78,3.51 -6.83,9.27 -9.62,12.78 -6.28,-7.26 -12.39,-13.72 -18.64,-19.72 3.37,-4.01 8.15,-7.75 13.06,-9.87z"/>
          </g>
         </g>
         <g>
          <g>
           <path class="fil7" d="M574.91 256.56c3.17,3.37 6.02,7.06 8.42,10.51 1.29,1.85 14.17,22.22 13.95,22.31 -4.91,2.12 -9.69,5.86 -13.06,9.87 -11.8,-11.34 -24.09,-21.03 -39.04,-31.32 -1.86,-1.28 -3.82,-2.64 -4.78,-4.69 -1.23,-2.65 -3.28,-6.13 -1.9,-11.2 0.77,-2.82 3.3,-5.36 5.86,-6.77 0.54,-0.3 1.09,-0.57 1.63,-0.85 2.25,-1.18 7.62,-0.07 10.02,0.39 3.04,0.57 5.96,1.65 8.63,3.22 3.65,2.14 7.12,5.17 10.27,8.53z"/>
          </g>
         </g>
         <g>
          <g>
           <path class="fil8" d="M539.48 253.29c0,-0.75 -0.17,-1.68 -0.35,-2.7 -0.24,0.48 -0.49,0.95 -0.63,1.45 -1.38,5.07 0.67,8.55 1.9,11.2 0.96,2.05 2.92,3.41 4.78,4.69 14.95,10.29 27.24,19.98 39.04,31.32 1.38,-1.64 3.02,-3.19 4.78,-4.64 -13.79,-15.19 -35.37,-25.16 -49.52,-41.32z"/>
          </g>
         </g>
        </g>
        <g>
         <g>
          <path class="fil3" d="M622.53 316.23c-4.13,10.13 -10.68,19.32 -19.22,26.15 -0.56,0.45 -1.17,0.91 -1.88,1.01 -1.4,0.2 -2.57,-0.99 -3.48,-2.08 9.39,-8.74 17.08,-19.29 22.54,-30.91 1.25,-0.33 2.49,0.83 2.74,2.09 0.25,1.27 -0.21,2.55 -0.7,3.74z"/>
         </g>
        </g>
        <g>
         <g>
          <path class="fil7" d="M609.66 303.02c-2.45,0.38 4.88,4.88 -4.52,5.97 -3.26,0.37 -10.18,1.75 -10.1,5.04 0.06,1.93 1.27,3.63 1.85,5.47 0.82,2.57 0.41,5.35 -0.17,7.97 -0.58,2.63 -1.32,5.28 -1.14,7.96 0.18,2.68 1.52,5.48 3.99,6.55 10.09,-8.28 17.97,-19.24 22.61,-31.44 -4.11,-3.73 -7.03,-8.38 -12.52,-7.52z"/>
         </g>
        </g>
       </g>
      </g>
      <g>
       <g>
        <g>
         <path class="fil4" d="M619.98 144.01c-6.04,1.06 -12.92,6.6 -15.12,12.32 -2.47,6.45 -6.27,11.31 -7.4,22.04 -0.48,4.48 0.54,8.93 2.35,13.05 3.45,7.84 -1.65,26.51 -6.25,34.82 15.11,0.23 35.83,1.34 50.93,1.56 3.13,-22.44 17.49,-49.45 16.06,-72.67 -0.18,-3.01 -2.09,-5.7 -4.76,-6.72 -11.49,-4.4 -24.53,-6.37 -35.81,-4.4z"/>
        </g>
       </g>
       <g>
        <g>
         <path class="fil9" d="M659.18 153.63c-13.34,-3.68 -21.83,9.34 -26.22,20.65 -0.41,12.72 -3.43,22.28 -11.6,30.18 -7.47,9.18 -16.63,15.64 -25.85,21.87 14.9,0.27 34.51,1.27 48.98,1.47 3.13,-21.69 17.03,-47.76 16.06,-70.23 -0.06,-1.44 -0.55,-2.81 -1.37,-3.94z"/>
        </g>
       </g>
       <path class="fil3" d="M638.04 209.63c-5.79,3.92 -12.73,5.68 -19.51,7.38 -8.17,2.04 -16.37,4.09 -24.75,4.89 -0.25,-1.06 -0.49,-2.13 -0.73,-3.19 12.86,-3.03 25.88,-6.12 37.57,-12.28 11.69,-6.15 22.11,-15.8 26.37,-28.31 -1.85,5.97 -3.86,11.93 -6.83,17.44 -2.97,5.5 -6.94,10.57 -12.12,14.07z"/>
      </g>
      <g>
       <g>
        <polygon class="fil10" points="534.64,209.58 534.18,209.58 "/>
       </g>
      </g>
      <g>
       <g>
        <g>
         <path class="fil4" d="M639.28 167.65c0.58,-2.69 1.2,-5.41 1.99,-8.2 1.09,-3.87 4.05,-9.2 8.12,-10.86 3.27,-1.34 7.54,-0.45 10.07,1.84 2.53,2.28 4.11,6.77 4.13,9.98 0.03,3.21 -0.92,6.37 -2.04,9.42 -0.6,1.63 -1.26,3.24 -1.94,4.84 -5.47,-4.51 -12.36,-7.17 -20.33,-7.02z"/>
        </g>
       </g>
       <g>
        <path class="fil5" d="M583.02 210.72c0.99,-0.74 2.1,-1.45 3.35,-1.54 1.23,-0.09 2.4,0.43 3.53,0.88 1.49,0.58 3.02,1.04 4.57,1.41 11.25,-5.14 21.13,-10.7 32.45,-15.82 2.06,-0.93 4.18,-1.9 5.73,-3.44 2.06,-2.03 2.17,-5.53 2.92,-8.19 1.58,-5.61 2.54,-10.94 3.71,-16.37 7.97,-0.15 14.86,2.51 20.33,7.02 -3.13,7.29 -7.07,14.29 -11.1,21.23 -2.07,3.57 -4.24,7.21 -7.59,9.9 -2.91,2.34 -6.56,3.81 -10.19,5.14 -10.54,3.88 -21.47,6.88 -32.63,8.98 -0.6,0.38 -1.24,0.72 -1.92,0.96 -1.76,0.64 -3.65,0.88 -5.53,1.09 -1.49,0.17 -3.35,0.16 -4.1,-1.1 -2.35,0.03 -4.71,0.07 -7.06,0.11 -1.82,0.02 -3.64,0.05 -5.45,0.08 2.18,-4.01 5.27,-7.56 8.98,-10.34z"/>
       </g>
       <g>
        <path class="fil6" d="M657.49 173.07c-10.47,33 -46.01,40.7 -78.62,46.92 -1.02,0.2 -2.01,0.55 -2.96,1.04 1.2,-0.02 2.39,-0.04 3.58,-0.05 2.35,-0.04 4.71,-0.08 7.06,-0.11 0.75,1.26 2.61,1.27 4.1,1.1 1.88,-0.21 3.77,-0.45 5.53,-1.09 0.68,-0.24 1.32,-0.58 1.92,-0.96 11.16,-2.1 22.09,-5.1 32.63,-8.98 3.63,-1.33 7.28,-2.8 10.19,-5.14 3.35,-2.69 5.52,-6.33 7.59,-9.9 4.03,-6.94 7.97,-13.94 11.1,-21.23 -0.69,-0.57 -1.39,-1.1 -2.12,-1.6z"/>
       </g>
      </g>
      <g>
       <g>
        <path class="fil5" d="M616.55 104.56c-0.04,-0.07 0.13,-0.07 0.09,0l-0.09 0z"/>
       </g>
      </g>
      <g>
       <g>
        <g>
         <path class="fil5" d="M611.76 148.69c1.28,-1.31 3.23,-2.03 4.97,-2.59 1.13,-0.36 1.86,-1.13 3.01,-1.41 2.48,-5.95 3.83,-12.38 3.92,-18.82 3.24,-0.15 6.47,-0.3 9.7,-0.45l1.85 1.47c-0.26,5.78 0.3,11.59 1.63,17.21 2.4,0.48 4.74,1.21 6.98,2.25 -0.28,1.88 -2.12,3.09 -3.8,3.98 -7.69,4.08 -16.48,6.96 -25.05,5.44 -1.77,-0.32 -3.7,-0.97 -4.54,-2.56 -0.84,-1.62 0.05,-3.21 1.33,-4.52z"/>
        </g>
        <g>
         <path class="fil6" d="M613.19 151.35c-1.18,0 0.17,-2.52 1.63,-4.55 -1.14,0.47 -2.24,1.05 -3.06,1.89 -1.28,1.31 -2.17,2.9 -1.33,4.52 0.84,1.59 2.77,2.24 4.54,2.56 5.71,1.01 11.5,0.06 17.01,-1.88 -6.26,1.15 -12.53,0.94 -18.79,-2.54z"/>
        </g>
        <g>
         <path class="fil6" d="M619.72 149.71c6.76,0 12.4,-2.8 16.81,-7.12 -1.08,-5.16 -1.56,-10.44 -1.32,-15.7l-1.85 -1.47c-3.23,0.15 -6.46,0.3 -9.7,0.45 -0.09,6.44 -1.44,12.87 -3.92,18.82 -0.63,0.15 -1.14,0.45 -1.65,0.75 0.02,1.72 0.19,4.27 1.63,4.27z"/>
        </g>
        <g>
         <g>
          <path class="fil3" d="M633.36 125.42l1.85 1.47c-0.1,2.26 -0.07,4.53 0.07,6.79 -4.06,5.62 -9.72,10.28 -16.04,12.12 2.79,-6.26 4.32,-13.08 4.42,-19.93 3.24,-0.15 6.47,-0.3 9.7,-0.45z"/>
         </g>
        </g>
       </g>
       <g>
        <g>
         <g>
          <g>
           <path class="fil3" d="M636.3 95.13c-0.27,0.18 -0.44,0.47 -0.69,0.68 -0.54,0.46 -1.34,0.46 -1.97,0.79 -0.73,0.38 -1.18,1.18 -1.33,2 -0.16,0.81 -0.06,1.64 0.03,2.47 2.66,1.66 4.77,4.05 6.84,6.4 2.19,2.49 4.49,5.2 4.88,8.5 3,-3.04 4.74,-7.37 4.3,-11.62 -0.43,-4.24 -3.17,-8.26 -7.11,-9.9 -0.55,-0.23 -1.16,-0.42 -1.75,-0.29 -0.59,0.12 -1.12,0.66 -1.05,1.26 -0.67,-0.36 -1.52,-0.71 -2.15,-0.29z"/>
          </g>
         </g>
         <g>
          <g>
           <path class="fil3" d="M612.11 105.62c2.35,-4.31 8.07,-6.75 12.9,-7.61 6.06,-1.08 12.58,1.52 16.36,6.37 3.78,4.85 4.73,11.71 2.58,17.47 -2.14,5.76 -7.26,10.28 -13.2,11.87 -3.77,1.01 -8.32,0.67 -10.83,-2.31 -2.99,-3.55 -2.05,-9.46 -5.48,-12.58 -1.24,-1.13 -3.03,-1.86 -3.57,-3.45 -0.38,-1.13 -1.14,-2.86 -0.77,-3.99 0.63,-1.9 1.05,-4.01 2.01,-5.77z"/>
          </g>
         </g>
         <g>
          <g>
           <path class="fil5" d="M612.26 121.15c0,2.21 -0.14,1.12 -0.51,3.29 -0.25,1.46 0.2,3.56 0.79,4.91 1.45,3.29 2.74,5.77 4.8,8.71 0.78,1.13 1.78,2.21 3.1,2.59 1.24,0.35 3.58,-0.16 4.74,-0.71 7.9,-3.75 13.24,-11.18 14.14,-19.88 0.33,-3.28 -0.02,-6.76 -1.84,-9.51 -2.01,-3.01 -5.48,-4.7 -8.95,-5.75 -2.54,-0.76 -5.21,-1.25 -7.86,-0.99 -2.64,0.27 -5.27,1.35 -7.03,3.34 -1.76,1.99 -3.57,7.92 -2.6,10.39 0.59,1.48 1.22,2.72 1.22,3.61z"/>
          </g>
         </g>
         <g>
          <g>
           <path class="fil6" d="M637.48 110.55c-2.01,-3.01 -5.48,-4.7 -8.95,-5.75 -2.54,-0.76 -5.21,-1.25 -7.86,-0.99 -2.64,0.27 -5.27,1.35 -7.03,3.34 -0.41,0.46 -0.81,1.14 -1.19,1.93 3.68,6.58 10.81,8.34 13.81,12.85 3.25,6.51 2.16,14.43 -2.74,18.56 0.63,-0.15 1.23,-0.34 1.66,-0.55 7.9,-3.75 13.24,-11.18 14.14,-19.88 0.33,-3.28 -0.02,-6.76 -1.84,-9.51z"/>
          </g>
         </g>
         <g>
          <g>
           <path class="fil11" d="M635.35 99.84c5.21,2.79 8.99,8.1 9.92,13.93 0.31,-2.34 0.23,-4.75 -0.65,-6.93 -0.94,-2.33 -2.83,-2.66 -4.07,-4.19 -1.88,-2.33 -3.92,-1.92 -5.2,-2.81z"/>
          </g>
         </g>
         <g>
          <path class="fil3" d="M641.97 114.44c-0.52,-0.85 -1.17,-1.6 -1.91,-2.26 -0.29,-1.73 -0.82,-3.39 -1.73,-4.9 -2.31,-3.87 -6.8,-6.48 -11.35,-7.11 -4.61,-0.64 -9.34,1.5 -12.7,4.72 -0.62,0.59 -1.23,1.32 -1.21,2.18 0.01,0.69 0.44,1.3 0.87,1.83 0.98,1.22 2.1,2.3 3.3,3.29 0.37,0.98 1.12,1.87 1.91,2.59 2.06,1.88 4.55,3.23 6.82,4.86 2.27,1.63 4.41,3.68 5.28,6.33 0.49,1.49 0.44,3.38 -0.78,4.35 -0.49,0.39 -1.11,0.59 -1.55,1.02 -0.77,0.76 -0.78,2.06 -0.32,3.04 0.47,0.98 1.32,1.72 2.14,2.43 -0.96,-0.97 -2,-2.19 -1.72,-3.52 0.26,-1.28 1.59,-1.99 2.54,-2.88 1.03,-0.98 1.62,-2.34 1.75,-3.74 0.82,2.29 1.57,4.65 1.53,7 3.11,-1.4 3.64,-4.29 5.51,-7.15 1.28,-1.96 2.57,-4.02 2.88,-6.34 0.26,-1.98 -0.22,-4.03 -1.26,-5.74zm-14.53 3.2l0 0c0.62,0.21 1.25,0.39 1.88,0.58 0.69,1.1 1.38,2.21 1.98,3.36 -1.28,-1.32 -2.84,-2.44 -3.86,-3.94z"/>
         </g>
         <g>
          <path class="fil7" d="M622.16 108.21c1.59,3.63 5.08,6.38 8.99,7.06 -0.91,-0.83 -1.83,-1.66 -2.74,-2.5 1.23,0.71 2.71,0.99 4.11,0.77 -0.24,-0.3 -0.49,-0.6 -0.73,-0.9 2.15,-0.56 4.6,0.25 5.98,2 0.27,-1.63 -0.41,-3.39 -1.72,-4.41 0.65,-0.12 1.35,0 1.92,0.33 0.03,-0.35 0.05,-0.7 0.08,-1.05 0.59,0.16 1.18,0.32 1.77,0.48 -0.46,-0.78 -0.91,-1.57 -1.37,-2.36 1,0.02 1.99,0.27 2.87,0.72 -0.89,-2.22 -2.54,-4.12 -4.6,-5.32 0.57,0.67 0.54,1.69 0.16,2.48 -0.38,0.8 -1.04,1.41 -1.69,2.01 -0.5,0.46 -1.18,0.95 -1.8,0.67 -0.28,-0.12 -0.49,-0.38 -0.79,-0.44 -0.51,-0.09 -0.89,0.44 -1.11,0.91 -0.21,0.47 -0.51,1.03 -1.03,1.04 -0.43,0.01 -0.75,-0.37 -1.08,-0.64 -0.33,-0.27 -0.93,-0.4 -1.12,-0.01 -0.07,0.14 -0.06,0.31 -0.09,0.46 -0.13,0.5 -0.78,0.7 -1.29,0.59 -0.51,-0.1 -0.95,-0.41 -1.45,-0.57 -0.49,-0.17 -1.13,-0.13 -1.42,0.31l-1.85 -1.63z"/>
         </g>
        </g>
       </g>
      </g>
      <g>
       <g>
        <g>
         <g>
          <g>
           <polygon class="fil3" points="705.77,402.16 709.56,402.16 690.82,225.84 687.03,225.84 "/>
          </g>
         </g>
        </g>
        <g>
         <g>
          <polygon class="fil3" points="694.13,395.99 697.79,395.99 679.7,225.84 676.04,225.84 "/>
         </g>
        </g>
       </g>
       <g>
        <g>
         <g>
          <g>
           <polygon class="fil3" points="486.45,402.16 482.66,402.16 501.4,225.84 505.19,225.84 "/>
          </g>
         </g>
        </g>
        <g>
         <g>
          <polygon class="fil3" points="498.09,395.99 494.43,395.99 512.52,225.84 516.17,225.84 "/>
         </g>
        </g>
       </g>
       <g>
        <g>
         <polygon class="fil3" points="692.97,265.68 693.9,264.43 642.71,226.04 641.78,227.29 "/>
        </g>
       </g>
       <g>
        <g>
         <polygon class="fil3" points="499.1,265.68 550.29,227.29 549.35,226.04 498.16,264.43 "/>
        </g>
       </g>
       <g>
        <g>
         <polygon class="fil2" points="457.74,229.43 733.36,229.43 733.36,222.07 457.74,222.07 "/>
        </g>
       </g>
      </g>
      <g>
       <g>
        <g>
         <path class="fil12" d="M524.29 219l63.27 0c1.19,0 2.1,-1.06 1.92,-2.24l-5.73 -35.95c-0.15,-0.94 -0.96,-1.63 -1.91,-1.63l-63.27 0c-1.19,0 -2.1,1.06 -1.91,2.24l5.72 35.95c0.15,0.94 0.96,1.63 1.91,1.63z"/>
        </g>
       </g>
       <g>
        <g>
         <path class="fil11" d="M524.29 220.74l63.27 0c1.19,0 2.1,-1.06 1.92,-2.24l-5.73 -35.95c-0.15,-0.94 -0.96,-1.63 -1.91,-1.63l-63.27 0c-1.19,0 -2.1,1.06 -1.91,2.24l5.72 35.95c0.15,0.94 0.96,1.63 1.91,1.63z"/>
        </g>
       </g>
       <g>
        <g>
         <polygon class="fil11" points="524.16,222.53 607.99,222.53 607.99,220.8 524.16,220.8 "/>
        </g>
       </g>
      </g>
     </g>
     <g>
      <path class="fil3" d="M660.18 172.88c-6.11,-4.05 -13.51,-6.31 -20.85,-6.36l0.01 -0.82c7.49,0.06 15.05,2.36 21.3,6.5l-0.46 0.68z"/>
     </g>
     <g>
      <path class="fil3" d="M617.92 158.49c-2.15,0 -4.62,-0.35 -6.62,-1.79 -1.45,-1.04 -2.46,-2.82 -2.65,-4.62 -0.14,-1.43 0.26,-2.75 1.13,-3.7 0.16,-0.16 0.42,-0.17 0.58,-0.02 0.17,0.15 0.18,0.41 0.03,0.58 -0.72,0.77 -1.04,1.86 -0.92,3.06 0.16,1.58 1.04,3.13 2.31,4.04 1.9,1.37 4.51,1.86 8.25,1.54 8.04,-0.71 15.54,-3.85 21.81,-6.83 1.21,-0.58 2.27,-1.13 3,-2 0.67,-0.81 1.04,-2.13 0.45,-3.06 -0.12,-0.19 -0.07,-0.45 0.12,-0.57 0.19,-0.12 0.45,-0.06 0.57,0.13 0.84,1.33 0.32,3.01 -0.51,4.02 -0.84,1 -1.98,1.6 -3.28,2.22 -6.34,3.01 -13.92,6.19 -22.09,6.9 -0.66,0.06 -1.4,0.1 -2.18,0.1z"/>
     </g>
    </g>
    <g>
     <g>
      <polygon class="fil12" points="459.38,273.9 395.72,273.9 395.72,255.82 459.38,255.82 "/>
      <path class="fil13" d="M457.61 292.9l-70.74 0 0 -20.87 78.47 0 0 13.14c0,4.27 -3.46,7.73 -7.73,7.73z"/>
     </g>
     <polygon class="fil13" points="386.32,324.66 31.51,290.29 31.51,275.34 386.32,275.34 "/>
     <g>
      <polygon class="fil14" points="155.83,275.32 101.23,275.32 101.23,258.36 155.83,258.36 "/>
      <polygon class="fil12" points="155.83,261.01 101.23,261.01 101.23,244.04 155.83,244.04 "/>
     </g>
     <g>
      <g>
       <g>
        <polygon class="fil2" points="404.4,386.84 194.2,386.84 194.2,56.38 346.24,56.38 404.4,150.94 "/>
        <polygon class="fil2" points="443.13,227.16 378.35,227.16 378.35,112.55 443.13,112.55 "/>
       </g>
       <polygon class="fil13" points="404.4,398.51 194.2,398.51 194.2,68.05 346.24,68.05 404.4,162.6 "/>
       <polygon class="fil13" points="443.13,238.83 378.35,238.83 378.35,124.21 443.13,124.21 "/>
      </g>
      <g>
       <path class="fil0" d="M325.29 103.82l-101.68 0c-8.16,0 -14.77,-6.6 -14.77,-14.76l0 -0.3c0,-8.15 6.61,-14.76 14.77,-14.76l101.68 0c8.15,0 14.76,6.61 14.76,14.76l0 0.3c0,8.16 -6.61,14.76 -14.76,14.76z"/>
       <g>
        <path class="fil14" d="M270.54 86.79c0,-4.91 -3.98,-8.89 -8.89,-8.89 -4.91,0 -8.89,3.98 -8.89,8.89 0,0.63 0,3.03 0,3.66 0,4.91 3.98,8.89 8.89,8.89 4.91,0 8.89,-3.98 8.89,-8.89 0,-0.63 0,-3.03 0,-3.66z"/>
        <path class="fil13" d="M242.45 86.79c0,-4.91 -3.98,-8.89 -8.89,-8.89 -4.91,0 -8.89,3.98 -8.89,8.89 0,0.63 0,3.03 0,3.66 0,4.91 3.98,8.89 8.89,8.89 4.91,0 8.89,-3.98 8.89,-8.89 0,-0.63 0,-3.03 0,-3.66z"/>
        <path class="fil15" d="M299.44 86.79c0,-4.91 -3.98,-8.89 -8.89,-8.89 -4.91,0 -8.89,3.98 -8.89,8.89 0,0.63 0,3.03 0,3.66 0,4.91 3.98,8.89 8.89,8.89 4.91,0 8.89,-3.98 8.89,-8.89 0,-0.63 0,-3.03 0,-3.66z"/>
        <path class="fil16" d="M328.34 86.79c0,-4.91 -3.98,-8.89 -8.89,-8.89 -4.91,0 -8.89,3.98 -8.89,8.89 0,0.63 0,3.03 0,3.66 0,4.91 3.98,8.89 8.89,8.89 4.91,0 8.89,-3.98 8.89,-8.89 0,-0.63 0,-3.03 0,-3.66z"/>
       </g>
      </g>
      <g>
       <g>
        <g>
         <path class="fil2" d="M256.47 231.69c-24.19,0 -43.87,-19.68 -43.87,-43.87 0,-24.19 19.68,-43.86 43.87,-43.86 24.18,0 43.86,19.67 43.86,43.86 0,24.19 -19.68,43.87 -43.86,43.87zm0 -86.09l0 0c-23.28,0 -42.22,18.94 -42.22,42.22 0,23.28 18.94,42.22 42.22,42.22 23.28,0 42.22,-18.94 42.22,-42.22 0,-23.28 -18.94,-42.22 -42.22,-42.22z"/>
        </g>
        <g>
         <path class="fil2" d="M312.89 241.09c-6.63,0 -12.03,-5.4 -12.03,-12.04 0,-6.63 5.4,-12.03 12.03,-12.03 6.64,0 12.04,5.4 12.04,12.03 0,6.64 -5.4,12.04 -12.04,12.04zm0 -22.43l0 0c-5.73,0 -10.39,4.66 -10.39,10.39 0,5.73 4.66,10.39 10.39,10.39 5.73,0 10.39,-4.66 10.39,-10.39 0,-5.73 -4.66,-10.39 -10.39,-10.39z"/>
        </g>
        <g>
         <path class="fil2" d="M280.7 299.68c-15.61,0 -28.31,-12.69 -28.31,-28.31 0,-15.61 12.7,-28.31 28.31,-28.31 15.61,0 28.31,12.7 28.31,28.31 0,15.62 -12.7,28.31 -28.31,28.31zm0 -54.97l0 0c-14.7,0 -26.66,11.96 -26.66,26.66 0,14.71 11.96,26.67 26.66,26.67 14.7,0 26.67,-11.96 26.67,-26.67 0,-14.7 -11.97,-26.66 -26.67,-26.66z"/>
        </g>
       </g>
       <g>
        <g>
         <path class="fil2" d="M380.17 385.04c-2.25,0 -4.08,-1.83 -4.08,-4.07 0,-2.25 1.83,-4.08 4.08,-4.08 2.24,0 4.07,1.83 4.07,4.08 0,2.24 -1.83,4.07 -4.07,4.07zm0 -6.51l0 0c-1.34,0 -2.44,1.1 -2.44,2.44 0,1.34 1.1,2.43 2.44,2.43 1.34,0 2.43,-1.09 2.43,-2.43 0,-1.34 -1.09,-2.44 -2.43,-2.44z"/>
        </g>
        <g>
         <path class="fil2" d="M213.79 386.49c-2.65,0 -4.8,-2.15 -4.8,-4.8 0,-2.65 2.15,-4.8 4.8,-4.8 2.64,0 4.8,2.15 4.8,4.8 0,2.65 -2.16,4.8 -4.8,4.8zm0 -7.96l0 0c-1.74,0 -3.16,1.42 -3.16,3.16 0,1.74 1.42,3.16 3.16,3.16 1.74,0 3.15,-1.42 3.15,-3.16 0,-1.74 -1.41,-3.16 -3.15,-3.16z"/>
        </g>
       </g>
       <g>
        <g>
         <path class="fil2" d="M408.38 157.9c-6.64,0 -12.04,-5.4 -12.04,-12.04 0,-6.63 5.4,-12.03 12.04,-12.03 6.64,0 12.03,5.4 12.03,12.03 0,6.64 -5.39,12.04 -12.03,12.04zm0 -22.43l0 0c-5.73,0 -10.39,4.66 -10.39,10.39 0,5.73 4.66,10.39 10.39,10.39 5.73,0 10.39,-4.66 10.39,-10.39 0,-5.73 -4.66,-10.39 -10.39,-10.39z"/>
        </g>
        <g>
         <path class="fil2" d="M424.66 223.73c-4.05,0 -7.34,-3.29 -7.34,-7.34 0,-4.04 3.29,-7.33 7.34,-7.33 4.04,0 7.33,3.29 7.33,7.33 0,4.05 -3.29,7.34 -7.33,7.34zm0 -13.02l0 0c-3.14,0 -5.69,2.55 -5.69,5.68 0,3.14 2.55,5.69 5.69,5.69 3.13,0 5.68,-2.55 5.68,-5.69 0,-3.13 -2.55,-5.68 -5.68,-5.68z"/>
        </g>
        <g>
         <path class="fil2" d="M435.26 234.82l-61.72 0c-2.59,0 -4.69,-2.1 -4.69,-4.68l0 -98.87c0,-2.58 2.1,-4.68 4.69,-4.68l61.72 0c2.59,0 4.68,2.1 4.68,4.68l0 98.87c0,2.58 -2.09,4.68 -4.68,4.68zm-61.72 -106.58l0 0c-1.68,0 -3.04,1.36 -3.04,3.03l0 98.87c0,1.67 1.36,3.03 3.04,3.03l61.72 0c1.68,0 3.04,-1.36 3.04,-3.03l0 -98.87c0,-1.67 -1.36,-3.03 -3.04,-3.03l-61.72 0z"/>
        </g>
       </g>
       <g>
        <g>
         <path class="fil2" d="M383.42 366.96l-167.34 0c-4.31,0 -7.82,-3.51 -7.82,-7.82l0 -45.33c0,-4.31 3.51,-7.81 7.82,-7.81l167.34 0c4.31,0 7.82,3.5 7.82,7.81l0 45.33c0,4.31 -3.51,7.82 -7.82,7.82zm-167.34 -59.32l0 0c-3.4,0 -6.17,2.77 -6.17,6.17l0 45.33c0,3.41 2.77,6.18 6.17,6.18l167.34 0c3.4,0 6.17,-2.77 6.17,-6.18l0 -45.33c0,-3.4 -2.77,-6.17 -6.17,-6.17l-167.34 0z"/>
        </g>
        <g>
         <polygon class="fil1" points="379.96,321.37 352.64,321.37 352.64,319.31 379.96,319.31 "/>
         <polygon class="fil1" points="379.96,328.59 352.64,328.59 352.64,326.52 379.96,326.52 "/>
         <polygon class="fil1" points="379.96,335.8 352.64,335.8 352.64,333.74 379.96,333.74 "/>
         <polygon class="fil1" points="379.96,343.02 352.64,343.02 352.64,340.96 379.96,340.96 "/>
         <polygon class="fil1" points="379.96,350.23 352.64,350.23 352.64,348.17 379.96,348.17 "/>
        </g>
       </g>
      </g>
     </g>
    </g>
   </g>
  </g>
 </g>
</svg>
