<svg width="157" height="247" viewBox="0 0 157 247" fill="none" xmlns="http://www.w3.org/2000/svg">
<path d="M-4.43114 240.561C13.8462 246.423 33.2421 247.923 52.2034 244.942C71.1647 241.961 89.1644 234.581 104.761 223.394C120.358 212.206 133.119 197.522 142.021 180.518C150.924 163.513 155.721 144.66 156.028 125.468C156.335 106.276 152.144 87.2791 143.791 69.998C135.437 52.7169 123.153 37.632 107.922 25.9512C92.6916 14.2704 74.9373 6.31827 56.0811 2.73168C37.225 -0.8549 17.791 0.023686 -0.664594 5.29708L3.92318 21.3532C19.8719 16.7961 36.666 16.0368 52.9608 19.1362C69.2557 22.2356 84.5983 29.1075 97.7602 39.2017C110.922 49.2958 121.538 62.3317 128.756 77.2654C135.975 92.1991 139.597 108.616 139.331 125.201C139.066 141.785 134.92 158.078 127.227 172.773C119.534 187.468 108.507 200.157 95.0286 209.825C81.5503 219.492 65.9955 225.87 49.6098 228.446C33.2242 231.022 16.4629 229.725 0.668261 224.66L-4.43114 240.561Z" fill="#E5E5E5"/>
</svg>
