<svg width="134" height="141" viewBox="0 0 134 141" fill="none" xmlns="http://www.w3.org/2000/svg">
<mask id="path-1-inside-1_2_3806" fill="white">
<path d="M0.418608 105.102C6.26159 115.223 14.5103 123.746 24.434 129.917C34.3578 136.088 45.6503 139.716 57.3112 140.48C68.9722 141.245 80.6417 139.121 91.286 134.299C101.93 129.476 111.221 122.102 118.335 112.831C125.449 103.56 130.167 92.6774 132.07 81.1475C133.974 69.6176 133.005 57.7962 129.248 46.7304C125.492 35.6646 119.064 25.696 110.535 17.7076C102.006 9.71912 91.6384 3.95744 80.3506 0.932886L70.3016 38.4365C75.4218 39.8085 80.1247 42.4221 83.9936 46.0457C87.8626 49.6694 90.7781 54.1913 92.482 59.2108C94.186 64.2304 94.6256 69.5927 93.7622 74.8228C92.8987 80.0529 90.7586 84.9893 87.5317 89.1948C84.3047 93.4003 80.0904 96.745 75.262 98.9327C70.4336 101.12 65.1402 102.084 59.8506 101.737C54.5611 101.39 49.4387 99.7444 44.9372 96.9451C40.4356 94.1459 36.6939 90.2797 34.0435 85.689L0.418608 105.102Z"/>
</mask>
<path d="M0.418608 105.102C6.26159 115.223 14.5103 123.746 24.434 129.917C34.3578 136.088 45.6503 139.716 57.3112 140.48C68.9722 141.245 80.6417 139.121 91.286 134.299C101.93 129.476 111.221 122.102 118.335 112.831C125.449 103.56 130.167 92.6774 132.07 81.1475C133.974 69.6176 133.005 57.7962 129.248 46.7304C125.492 35.6646 119.064 25.696 110.535 17.7076C102.006 9.71912 91.6384 3.95744 80.3506 0.932886L70.3016 38.4365C75.4218 39.8085 80.1247 42.4221 83.9936 46.0457C87.8626 49.6694 90.7781 54.1913 92.482 59.2108C94.186 64.2304 94.6256 69.5927 93.7622 74.8228C92.8987 80.0529 90.7586 84.9893 87.5317 89.1948C84.3047 93.4003 80.0904 96.745 75.262 98.9327C70.4336 101.12 65.1402 102.084 59.8506 101.737C54.5611 101.39 49.4387 99.7444 44.9372 96.9451C40.4356 94.1459 36.6939 90.2797 34.0435 85.689L0.418608 105.102Z" stroke="#D0D0D0" stroke-width="4" mask="url(#path-1-inside-1_2_3806)"/>
</svg>
