<?xml version="1.0" encoding="UTF-8"?>
<!DOCTYPE svg PUBLIC "-//W3C//DTD SVG 1.1//EN" "http://www.w3.org/Graphics/SVG/1.1/DTD/svg11.dtd">
<!-- Creator: CorelDRAW -->
<svg xmlns="http://www.w3.org/2000/svg" xml:space="preserve" width="190mm" height="190mm" version="1.1" style="shape-rendering:geometricPrecision; text-rendering:geometricPrecision; image-rendering:optimizeQuality; fill-rule:evenodd; clip-rule:evenodd"
viewBox="0 0 19000 19000"
 xmlns:xlink="http://www.w3.org/1999/xlink"
 xmlns:xodm="http://www.corel.com/coreldraw/odm/2003">
 <defs>
  <style type="text/css">
   <![CDATA[
    .str0 {stroke:black;stroke-width:17.64;stroke-miterlimit:22.9256}
    .fil10 {fill:none}
    .fil2 {fill:#00A59C;fill-rule:nonzero}
    .fil0 {fill:#1A75BA;fill-rule:nonzero}
    .fil1 {fill:#26A8DF;fill-rule:nonzero}
    .fil6 {fill:#36B349;fill-rule:nonzero}
    .fil7 {fill:#8AC43F;fill-rule:nonzero}
    .fil8 {fill:#90268E;fill-rule:nonzero}
    .fil9 {fill:#D81C5B;fill-rule:nonzero}
    .fil5 {fill:#EB1C23;fill-rule:nonzero}
    .fil3 {fill:#EF5928;fill-rule:nonzero}
    .fil4 {fill:#F6911D;fill-rule:nonzero}
   ]]>
  </style>
 </defs>
 <g id="Слой_x0020_1">
  <metadata id="CorelCorpID_0Corel-Layer"/>
  <g id="_2996230213616">
   <g>
    <path class="fil0" d="M9404.75 18659.09l0 -871.65 87.18 0c4565.53,0 8279.9,-3714.36 8279.9,-8279.38l0 -87.19 871.16 0 0 87.19c0,5045.78 -4105.22,9151.03 -9151.06,9151.03l-87.18 0z"/>
   </g>
   <g>
    <path class="fil1" d="M340.86 9594.98l0 -86.92c0,-5045.99 4105.36,-9151 9151.07,-9151l87.15 0 0 871.79 -87.15 0c-4565.24,0 -8279.62,3713.69 -8279.62,8279.21l0 86.92 -871.45 0z"/>
   </g>
   <g>
    <path class="fil2" d="M9491.93 17351.47c-4325.32,0 -7843.66,-3518.79 -7843.66,-7843.41l0 -87.19 871.3 0 0 87.19c0,3844.18 3127.8,6972.42 6972.36,6972.42l87.15 0 0 870.99 -87.15 0z"/>
   </g>
   <g>
    <path class="fil3" d="M16464.27 9594.98l0 -86.92c0,-3844.76 -3127.49,-6972.25 -6972.34,-6972.25l-87.18 0 0 -871.63 87.18 0c4325.44,0 7843.99,3518.57 7843.99,7843.88l0 86.92 -871.65 0z"/>
   </g>
   <g>
    <g>
     <path class="fil4" d="M9404.75 16044.54l0 -871.79 87.18 0c3123.83,0 5665.07,-2541.23 5665.07,-5664.69l0 -87.19 871.61 0 0 87.19c0,3604.12 -2932.5,6536.48 -6536.68,6536.48l-87.18 0z"/>
    </g>
   </g>
   <g>
    <path class="fil5" d="M2955.55 9594.98l0 -86.92c0,-3604.26 2932.36,-6536.38 6536.38,-6536.38l87.15 0 0 871.41 -87.15 0c-3123.71,0 -5664.91,2541.17 -5664.91,5664.97l0 86.92 -871.47 0z"/>
   </g>
   <g>
    <path class="fil6" d="M13849.58 9594.98l0 -86.92c0,-2402.88 -1954.61,-4357.48 -4357.65,-4357.48l-87.18 0 0 -871.84 87.18 0c2883.5,0 5229.09,2345.78 5229.09,5229.32l0 86.92 -871.44 0z"/>
   </g>
   <g>
    <path class="fil7" d="M9491.93 14737.23c-2883.34,0 -5229.13,-2345.9 -5229.13,-5229.17l0 -87.19 871.65 0 0 87.19c0,2402.82 1954.45,4357.73 4357.48,4357.73l87.15 0 0 871.44 -87.15 0z"/>
   </g>
   <g>
    <path class="fil8" d="M5570.25 9594.98l0 -86.92c0,-2162.73 1759.48,-3922.03 3921.68,-3922.03l87.15 0 0 871.61 -87.15 0c-1681.9,0 -3050.21,1368.22 -3050.21,3050.42l0 86.92 -871.47 0z"/>
   </g>
   <g>
    <path class="fil9" d="M9404.75 13429.82l0 -871.47 87.18 0c1681.74,0 3050.34,-1368.32 3050.34,-3050.29l0 -87.19 871.65 0 0 87.19c0,2162.52 -1759.93,3921.76 -3921.99,3921.76l-87.18 0z"/>
   </g>
  </g>
  <line class="fil10 str0" x1="9491.93" y1="7508.07" x2="9491.93" y2= "11508.07" />
  <line class="fil10 str0" x1="7491.93" y1="9508.07" x2="11491.93" y2= "9508.07" />
  <circle class="fil10 str0" cx="9491.93" cy="9508.07" r="1000"/>
 </g>
</svg>
