<svg width="442" height="544" viewBox="0 0 442 544" fill="none" xmlns="http://www.w3.org/2000/svg">
<mask id="path-1-inside-1_2_3832" fill="white">
<path d="M117.663 98.6137C90.5801 106.72 65.7717 121.056 45.2246 140.473C24.6774 159.89 8.96241 183.849 -0.662008 210.43C-10.2864 237.012 -13.5528 265.477 -10.1997 293.548C-6.84648 321.619 3.03311 348.514 18.648 372.08C34.2628 395.647 55.1791 415.23 79.7217 429.26C104.264 443.291 131.751 451.38 159.982 452.88C188.212 454.379 216.402 449.247 242.292 437.895C268.183 426.543 291.056 409.286 309.079 387.506L274.718 359.072C261.135 375.487 243.896 388.493 224.383 397.049C204.869 405.604 183.624 409.472 162.347 408.342C141.071 407.212 120.355 401.116 101.857 390.541C83.3602 379.966 67.5962 365.207 55.8276 347.446C44.0591 329.684 36.6131 309.414 34.0859 288.258C31.5587 267.102 34.0205 245.648 41.2742 225.614C48.5279 205.58 60.3719 187.523 75.8577 172.889C91.3436 158.255 110.041 147.451 130.453 141.341L117.663 98.6137Z"/>
</mask>
<path d="M117.663 98.6137C90.5801 106.72 65.7717 121.056 45.2246 140.473C24.6774 159.89 8.96241 183.849 -0.662008 210.43C-10.2864 237.012 -13.5528 265.477 -10.1997 293.548C-6.84648 321.619 3.03311 348.514 18.648 372.08C34.2628 395.647 55.1791 415.23 79.7217 429.26C104.264 443.291 131.751 451.38 159.982 452.88C188.212 454.379 216.402 449.247 242.292 437.895C268.183 426.543 291.056 409.286 309.079 387.506L274.718 359.072C261.135 375.487 243.896 388.493 224.383 397.049C204.869 405.604 183.624 409.472 162.347 408.342C141.071 407.212 120.355 401.116 101.857 390.541C83.3602 379.966 67.5962 365.207 55.8276 347.446C44.0591 329.684 36.6131 309.414 34.0859 288.258C31.5587 267.102 34.0205 245.648 41.2742 225.614C48.5279 205.58 60.3719 187.523 75.8577 172.889C91.3436 158.255 110.041 147.451 130.453 141.341L117.663 98.6137Z" stroke="#939393" stroke-width="2" mask="url(#path-1-inside-1_2_3832)"/>
<ellipse cx="174.983" cy="269.332" rx="79.1631" ry="79.1631" transform="rotate(105 174.983 269.332)" stroke="#939393"/>
</svg>
