<svg width="190" height="274" viewBox="0 0 190 274" fill="none" xmlns="http://www.w3.org/2000/svg">
<path d="M0.888656 272.4L0.388656 272.4L0.388656 272.935L0.922492 272.899L0.888656 272.4ZM0.888653 216.6L0.92249 216.101L0.388653 216.065L0.388653 216.6L0.888653 216.6ZM137.989 225.9L138.489 225.9L138.489 225.433L138.023 225.401L137.989 225.9ZM137.989 263.1L138.023 263.599L138.489 263.567L138.489 263.1L137.989 263.1ZM205.489 265.2L205.842 265.554L205.849 265.547L205.855 265.54L205.489 265.2ZM167.089 265.2L167.456 264.86L167.449 264.853L167.089 265.2ZM167.089 223.8L167.449 224.147L167.456 224.14L167.089 223.8ZM205.489 224.1L205.849 223.753L205.849 223.753L205.489 224.1ZM1.38866 272.4L1.38865 216.6L0.388653 216.6L0.388656 272.4L1.38866 272.4ZM0.854817 217.099L137.955 226.399L138.023 225.401L0.92249 216.101L0.854817 217.099ZM137.489 225.9L137.489 263.1L138.489 263.1L138.489 225.9L137.489 225.9ZM137.955 262.601L0.85482 271.901L0.922492 272.899L138.023 263.599L137.955 262.601ZM212.789 244.5C212.789 252.584 210.23 259.359 205.122 264.86L205.855 265.54C211.148 259.841 213.789 252.816 213.789 244.5L212.789 244.5ZM205.135 264.846C199.828 270.153 193.455 272.8 185.989 272.8L185.989 273.8C193.722 273.8 200.349 271.047 205.842 265.554L205.135 264.846ZM185.989 272.8C178.523 272.8 172.357 270.154 167.456 264.86L166.722 265.54C171.82 271.046 178.255 273.8 185.989 273.8L185.989 272.8ZM167.449 264.853C162.35 259.558 159.789 252.788 159.789 244.5L158.789 244.5C158.789 253.012 161.428 260.042 166.728 265.547L167.449 264.853ZM159.789 244.5C159.789 236.212 162.35 229.442 167.449 224.147L166.728 223.453C161.428 228.958 158.789 235.988 158.789 244.5L159.789 244.5ZM167.456 224.14C172.357 218.846 178.523 216.2 185.989 216.2L185.989 215.2C178.255 215.2 171.82 217.954 166.722 223.46L167.456 224.14ZM185.989 216.2C193.449 216.2 199.82 218.942 205.129 224.447L205.849 223.753C200.357 218.058 193.728 215.2 185.989 215.2L185.989 216.2ZM205.129 224.447C210.23 229.744 212.789 236.416 212.789 244.5L213.789 244.5C213.789 236.184 211.147 229.255 205.849 223.753L205.129 224.447ZM0.888651 164.681L0.388651 164.681L0.388651 165.216L0.922488 165.18L0.888651 164.681ZM0.888649 108.881L0.922485 108.382L0.388649 108.346L0.388649 108.881L0.888649 108.881ZM137.989 118.181L138.489 118.181L138.489 117.714L138.022 117.682L137.989 118.181ZM137.989 155.381L138.023 155.88L138.489 155.848L138.489 155.381L137.989 155.381ZM205.489 157.481L205.842 157.835L205.849 157.828L205.855 157.821L205.489 157.481ZM167.089 157.481L167.456 157.141L167.449 157.134L167.089 157.481ZM167.089 116.081L167.449 116.428L167.456 116.421L167.089 116.081ZM205.489 116.381L205.849 116.034L205.849 116.034L205.489 116.381ZM1.38865 164.681L1.38865 108.881L0.388649 108.881L0.388651 164.681L1.38865 164.681ZM0.854812 109.38L137.955 118.68L138.022 117.682L0.922485 108.382L0.854812 109.38ZM137.489 118.181L137.489 155.381L138.489 155.381L138.489 118.181L137.489 118.181ZM137.955 154.882L0.854815 164.182L0.922488 165.18L138.023 155.88L137.955 154.882ZM212.789 136.781C212.789 144.865 210.23 151.641 205.122 157.141L205.855 157.821C211.148 152.122 213.789 145.097 213.789 136.781L212.789 136.781ZM205.135 157.128C199.828 162.434 193.455 165.081 185.989 165.081L185.989 166.081C193.722 166.081 200.349 163.328 205.842 157.835L205.135 157.128ZM185.989 165.081C178.523 165.081 172.357 162.436 167.456 157.142L166.722 157.821C171.82 163.327 178.255 166.081 185.989 166.081L185.989 165.081ZM167.449 157.134C162.35 151.839 159.789 145.069 159.789 136.781L158.789 136.781C158.789 145.294 161.428 152.323 166.728 157.828L167.449 157.134ZM159.789 136.781C159.789 128.494 162.35 121.723 167.449 116.428L166.728 115.734C161.428 121.239 158.789 128.269 158.789 136.781L159.789 136.781ZM167.456 116.421C172.357 111.127 178.523 108.481 185.989 108.481L185.989 107.481C178.255 107.481 171.82 110.236 166.722 115.742L167.456 116.421ZM185.989 108.481C193.449 108.481 199.82 111.223 205.129 116.728L205.849 116.034C200.357 110.339 193.728 107.481 185.989 107.481L185.989 108.481ZM205.129 116.728C210.23 122.026 212.789 128.697 212.789 136.781L213.789 136.781C213.789 128.465 211.147 121.537 205.849 116.034L205.129 116.728ZM0.888647 56.9625L0.388647 56.9625L0.388647 57.4976L0.922483 57.4613L0.888647 56.9625ZM0.888644 1.1625L0.92248 0.663632L0.388644 0.627438L0.388644 1.1625L0.888644 1.1625ZM137.989 10.4625L138.489 10.4625L138.489 9.99526L138.022 9.96364L137.989 10.4625ZM137.989 47.6625L138.022 48.1613L138.489 48.1297L138.489 47.6625L137.989 47.6625ZM205.489 49.7625L205.842 50.116L205.849 50.1095L205.855 50.1027L205.489 49.7625ZM167.089 49.7625L167.456 49.4227L167.449 49.4157L167.089 49.7625ZM167.089 8.36248L167.449 8.70937L167.456 8.7022L167.089 8.36248ZM205.489 8.66249L205.849 8.31566L205.849 8.31542L205.489 8.66249ZM1.38865 56.9625L1.38864 1.1625L0.388644 1.1625L0.388647 56.9625L1.38865 56.9625ZM0.854808 1.66134L137.955 10.9613L138.022 9.96364L0.92248 0.663632L0.854808 1.66134ZM137.489 10.4625L137.489 47.6625L138.489 47.6625L138.489 10.4625L137.489 10.4625ZM137.955 47.1636L0.85481 56.4637L0.922483 57.4613L138.022 48.1613L137.955 47.1636ZM212.789 29.0625C212.789 37.1464 210.23 43.9219 205.122 49.4223L205.855 50.1027C211.148 44.4031 213.789 37.3786 213.789 29.0625L212.789 29.0625ZM205.135 49.4089C199.828 54.7157 193.455 57.3625 185.989 57.3625L185.989 58.3625C193.722 58.3625 200.349 55.6093 205.842 50.116L205.135 49.4089ZM185.989 57.3625C178.523 57.3625 172.357 54.7169 167.456 49.4228L166.722 50.1022C171.82 55.6081 178.255 58.3625 185.989 58.3625L185.989 57.3625ZM167.449 49.4157C162.35 44.1204 159.789 37.3501 159.789 29.0625L158.789 29.0625C158.789 37.5749 161.428 44.6046 166.728 50.1093L167.449 49.4157ZM159.789 29.0625C159.789 20.7749 162.35 14.0046 167.449 8.70931L166.728 8.01568C161.428 13.5203 158.789 20.5501 158.789 29.0625L159.789 29.0625ZM167.456 8.7022C172.357 3.4081 178.523 0.76247 185.989 0.76247L185.989 -0.23753C178.255 -0.23753 171.82 2.51687 166.722 8.02279L167.456 8.7022ZM185.989 0.76247C193.449 0.76247 199.82 3.50469 205.129 9.00954L205.849 8.31542C200.357 2.62029 193.728 -0.23753 185.989 -0.23753L185.989 0.76247ZM205.128 9.0093C210.23 14.307 212.789 20.9786 212.789 29.0625L213.789 29.0625C213.789 20.7464 211.147 13.818 205.849 8.31566L205.128 9.0093Z" fill="#18191A"/>
</svg>
